<?xml version="1.0" encoding="utf-8"?>
<!-- Generator: Adobe Illustrator 26.5.0, SVG Export Plug-In . SVG Version: 6.00 Build 0)  -->
<svg version="1.1" id="Calque_1" xmlns="http://www.w3.org/2000/svg" xmlns:xlink="http://www.w3.org/1999/xlink" x="0px" y="0px"
	 viewBox="0 0 658 242" style="enable-background:new 0 0 658 242;" xml:space="preserve">
<style type="text/css">
	.st0{fill:#FFFFFF;}
	.st1{fill:url(#SVGID_1_);}
</style>
<g>
	<path class="st0" d="M263.9,97.1h1.3V126l37.6-28.8h2.3l-25.8,19.7l27.9,27.6h-2.1l-27-26.6l-12.9,9.9v16.8h-1.3L263.9,97.1
		L263.9,97.1L263.9,97.1z"/>
	<path class="st0" d="M335.8,97.1h1.3v47.3h-1.3V97.1z"/>
	<path class="st0" d="M371,97.1h1.7l37.4,45.6h0.1V97.1h1.3v47.3h-1.7l-37.4-45.6h-0.1v45.6H371V97.1z"/>
	<path class="st0" d="M468,96.1c13.5,0,24.5,9.1,24.5,24.7c0,15.6-11,24.7-24.5,24.7c-13.5,0-24.5-9.1-24.5-24.7
		C443.5,105.2,454.5,96.1,468,96.1z M468,144.2c12.3,0,23.2-8.2,23.2-23.4S480.4,97.4,468,97.4c-12.3,0-23.2,8.2-23.2,23.4
		S455.7,144.2,468,144.2z"/>
	<path class="st0" d="M541.5,97.1h1.7l21.7,47.3h-1.7l-7.1-15.6h-27.6l-7.1,15.6h-1.7L541.5,97.1z M529.2,127.5h26.4l-13.2-29
		L529.2,127.5z"/>
	<path class="st0" d="M594,97.1h1.3v22h37.9v-22h1.3v47.3h-1.3v-24h-37.9v24H594V97.1z"/>
</g>
<g>
	<path class="st0" d="M542.1,154.7l1.3,5.1c0.3,1.1,0.6,2.2,0.8,3.2h0.1c0.2-1,0.6-2.1,0.9-3.2l1.7-5.2h1.5l1.6,5.1
		c0.4,1.2,0.7,2.3,0.9,3.3h0.1c0.2-1,0.4-2.1,0.8-3.3l1.4-5.1h1.8l-3.3,10.1H550l-1.5-4.8c-0.4-1.1-0.6-2.1-0.9-3.3h0
		c-0.3,1.2-0.6,2.3-0.9,3.3l-1.6,4.8h-1.7l-3.1-10.1L542.1,154.7L542.1,154.7L542.1,154.7z"/>
	<path class="st0" d="M557.6,160.1c0,2.5,1.6,3.5,3.5,3.5c1.3,0,2.1-0.2,2.8-0.5l0.3,1.3c-0.6,0.3-1.8,0.6-3.4,0.6
		c-3.1,0-5-2.1-5-5.1c0-3.1,1.8-5.5,4.7-5.5c3.3,0,4.2,2.9,4.2,4.8c0,0.4,0,0.7-0.1,0.9L557.6,160.1L557.6,160.1z M563,158.8
		c0-1.2-0.5-3-2.6-3c-1.9,0-2.7,1.7-2.8,3H563z"/>
	<path class="st0" d="M567,164.8c0-0.7,0.1-1.7,0.1-2.6V150h1.8v6.4h0c0.6-1.1,1.8-1.9,3.5-1.9c2.5,0,4.3,2.1,4.3,5.2
		c0,3.6-2.3,5.4-4.5,5.4c-1.5,0-2.6-0.6-3.4-1.9h-0.1l-0.1,1.7L567,164.8L567,164.8L567,164.8z M568.9,160.8c0,0.2,0,0.5,0.1,0.7
		c0.4,1.3,1.4,2.2,2.8,2.2c1.9,0,3.1-1.6,3.1-3.9c0-2-1-3.8-3-3.8c-1.3,0-2.4,0.9-2.8,2.3c0,0.2-0.1,0.5-0.1,0.8V160.8L568.9,160.8z
		"/>
	<path class="st0" d="M587.7,150v12.2c0,0.9,0,1.9,0.1,2.6h-1.7l-0.1-1.8h0c-0.6,1.1-1.8,2-3.5,2c-2.4,0-4.3-2.1-4.3-5.1
		c0-3.4,2.1-5.4,4.5-5.4c1.5,0,2.6,0.7,3.1,1.5h0v-6L587.7,150L587.7,150z M585.9,158.8c0-0.2,0-0.5-0.1-0.8
		c-0.3-1.2-1.3-2.1-2.7-2.1c-1.9,0-3,1.7-3,3.9c0,2.1,1,3.7,3,3.7c1.2,0,2.4-0.8,2.7-2.2c0.1-0.3,0.1-0.5,0.1-0.8V158.8z"/>
	<path class="st0" d="M591.8,160.1c0,2.5,1.6,3.5,3.5,3.5c1.3,0,2.1-0.2,2.8-0.5l0.3,1.3c-0.6,0.3-1.8,0.6-3.4,0.6
		c-3.1,0-5-2.1-5-5.1c0-3.1,1.8-5.5,4.7-5.5c3.3,0,4.2,2.9,4.2,4.8c0,0.4,0,0.7-0.1,0.9L591.8,160.1L591.8,160.1z M597.2,158.8
		c0-1.2-0.5-3-2.6-3c-1.9,0-2.7,1.7-2.8,3H597.2z"/>
	<path class="st0" d="M601,163c0.5,0.4,1.5,0.7,2.4,0.7c1.3,0,2-0.7,2-1.5c0-0.9-0.5-1.4-1.9-1.9c-1.8-0.6-2.7-1.7-2.7-2.9
		c0-1.6,1.3-3,3.5-3c1,0,1.9,0.3,2.5,0.6l-0.5,1.3c-0.4-0.3-1.1-0.6-2.1-0.6c-1.1,0-1.7,0.6-1.7,1.4c0,0.8,0.6,1.2,1.9,1.7
		c1.8,0.7,2.7,1.5,2.7,3.1c0,1.8-1.4,3-3.8,3c-1.1,0-2.1-0.3-2.8-0.7L601,163z"/>
	<path class="st0" d="M611.6,151.9c0,0.6-0.4,1.1-1.2,1.1c-0.6,0-1.1-0.5-1.1-1.1c0-0.6,0.5-1.1,1.2-1.1
		C611.1,150.7,611.6,151.2,611.6,151.9z M609.5,164.8v-10.1h1.8v10.1H609.5z"/>
	<path class="st0" d="M623.1,154.7c0,0.7-0.1,1.5-0.1,2.8v5.9c0,2.3-0.5,3.7-1.4,4.6c-1,0.9-2.4,1.2-3.7,1.2c-1.2,0-2.6-0.3-3.4-0.8
		l0.5-1.4c0.7,0.4,1.7,0.8,3,0.8c1.9,0,3.3-1,3.3-3.5v-1.1h0c-0.6,0.9-1.7,1.7-3.2,1.7c-2.5,0-4.3-2.1-4.3-4.9
		c0-3.4,2.2-5.4,4.6-5.4c1.8,0,2.7,0.9,3.2,1.8h0l0.1-1.5L623.1,154.7L623.1,154.7z M621.2,158.7c0-0.3,0-0.6-0.1-0.8
		c-0.3-1.1-1.2-1.9-2.6-1.9c-1.8,0-3,1.5-3,3.8c0,2,1,3.6,3,3.6c1.1,0,2.2-0.7,2.6-1.9c0.1-0.3,0.1-0.7,0.1-1V158.7z"/>
	<path class="st0" d="M626,157.5c0-1,0-1.9-0.1-2.7h1.6l0.1,1.7h0c0.5-1,1.7-1.9,3.3-1.9c1.4,0,3.6,0.8,3.6,4.3v6h-1.8V159
		c0-1.6-0.6-3-2.3-3c-1.2,0-2.2,0.9-2.5,1.9c-0.1,0.2-0.1,0.5-0.1,0.9v6.1H626L626,157.5L626,157.5z"/>
</g>
<polygon class="st0" points="144.1,184.9 144.1,58.1 144.1,50 170.6,66.7 170.6,66.8 170.6,106.5 181.6,107.2 188.2,107.7 
	189.8,107.8 211.2,89.5 218.1,107.4 218.6,108.5 219.6,111.3 216.9,114.2 209.9,121.5 216.9,128.9 219.6,131.7 218.6,134.5 
	218.1,135.7 211.4,153.2 189.8,134.4 188.2,134.5 181.6,134.9 170.6,135.6 170.6,176.2 170.6,176.4 144.1,193 "/>
<radialGradient id="SVGID_1_" cx="409.641" cy="-308.7481" r="202.9796" gradientTransform="matrix(1 0 0 -1 -286.2998 -187.248)" gradientUnits="userSpaceOnUse">
	<stop  offset="0" style="stop-color:#99C31C"/>
	<stop  offset="1" style="stop-color:#99C31C"/>
</radialGradient>
<path class="st1" d="M216.1,85.4l-4.8,4.1l-12.4-32.4l-79-25.8l-69.1,90.2l69.1,90.1l79-25.7l12.5-32.7l4.8,4.1l-12.2,33.1
	c-0.8,2.2-2.5,3.9-4.7,4.7l-83,31.5c-3.2,1.2-6.8,0.3-9-2.4l-81.4-97.6c-2.5-3-2.5-7.3,0-10.3l81.4-97.7c2.2-2.6,5.8-3.6,9-2.4
	l83,31.4c2.2,0.8,3.9,2.5,4.7,4.7L216.1,85.4z M219.6,131.7l3.9-10.2l-3.9-10.2l4.3-4.5l5.4,14.7l-5.4,14.6L219.6,131.7z"/>
</svg>
