<?xml version="1.0" encoding="utf-8"?>
<!-- Generator: Adobe Illustrator 26.5.0, SVG Export Plug-In . SVG Version: 6.00 Build 0)  -->
<svg version="1.1" id="Calque_2_00000050621663105234267560000008378983919915218323_"
	 xmlns="http://www.w3.org/2000/svg" xmlns:xlink="http://www.w3.org/1999/xlink" x="0px" y="0px" viewBox="0 0 732.6 371.3"
	 style="enable-background:new 0 0 732.6 371.3;" xml:space="preserve">
<style type="text/css">
	.st0{fill:#1F1F1F;}
	.st1{fill:#FFFFFF;}
	.st2{fill:url(#SVGID_1_);}
	.st3{enable-background:new    ;}
	.st4{fill:#808080;}
	.st5{fill:#AEAEAE;}
	.st6{clip-path:url(#SVGID_00000011033401107080748500000010476106381402751904_);}
	.st7{fill:#838383;}
	.st8{fill:#939393;}
	.st9{fill:#818181;}
	.st10{clip-path:url(#SVGID_00000013904737905607095510000010573822575743794618_);}
	.st11{fill:url(#SVGID_00000105394960852456794630000018443340050903153832_);}
	.st12{fill:#878787;}
	.st13{fill:#9A9A9A;}
	.st14{fill:#B4B4B4;}
	.st15{fill:#979797;}
	.st16{fill:#F0F0F0;}
	.st17{fill:url(#SVGID_00000051355733140279147790000011234540492681004954_);}
	.st18{fill:#757575;}
	.st19{fill:#333333;}
	.st20{fill:#8E8E8E;}
	.st21{fill:url(#SVGID_00000041992574206989806220000017643461945193040530_);}
	.st22{fill:url(#SVGID_00000163781275087881489660000018019129388905045134_);}
	.st23{fill:url(#SVGID_00000066490153235364114300000007026761990664482218_);}
	.st24{fill:url(#SVGID_00000142149093473709539490000003389138897946608558_);}
	.st25{fill:url(#SVGID_00000030448027307738229310000000322794670861129625_);}
	.st26{fill:url(#SVGID_00000139258920009025074150000013704359250305104541_);}
	.st27{fill:url(#SVGID_00000026141514182763139120000011810737215484509112_);}
	.st28{fill:url(#SVGID_00000091711120062465952530000011224910941060579211_);}
	.st29{fill:url(#SVGID_00000037686655027306278260000006820606644401669819_);}
	.st30{fill:url(#SVGID_00000106869492864302487050000005314714919711988610_);}
	.st31{fill:url(#SVGID_00000127045727194509488840000002312276978064613030_);}
	.st32{fill:url(#SVGID_00000151532129695178382500000003482977104918811022_);}
	.st33{fill:url(#SVGID_00000078733824521132662310000005946236686924383114_);}
	.st34{fill:url(#SVGID_00000019663530839019318330000017255933909724418737_);}
	.st35{fill:url(#SVGID_00000159431656891409483720000013889538599104211086_);}
	.st36{fill:url(#SVGID_00000039845357699759592510000013618628618962144185_);}
	.st37{fill:url(#SVGID_00000083054702124537854670000009224965690403254451_);}
	.st38{fill:url(#SVGID_00000075858809036522390460000015588420009429431484_);}
	.st39{fill:url(#SVGID_00000125591114112224146260000006792656642363337627_);}
	.st40{fill:url(#SVGID_00000089560415608411410720000016765124918263991985_);}
	.st41{fill:url(#SVGID_00000013157562159623875720000018031202445499284874_);}
	.st42{fill:url(#SVGID_00000083073810312202012030000001767236927707662486_);}
	.st43{fill:url(#SVGID_00000077307026881155766980000009045704124297024925_);}
	.st44{fill:url(#SVGID_00000075148208594650817510000016809481567089683646_);}
	.st45{fill:url(#SVGID_00000145039397654976893730000015138906804366149035_);}
	.st46{fill:url(#SVGID_00000145033226675369766850000013160584789052610750_);}
	.st47{fill:url(#SVGID_00000022522680801318791830000016809326386013665687_);}
	.st48{fill:url(#SVGID_00000163058237683715693330000007562256064147581072_);}
	.st49{fill:url(#SVGID_00000083779194010556631810000015168532016185632655_);}
	.st50{fill:url(#SVGID_00000074436181736906955710000002830841165461746361_);}
	.st51{fill:url(#SVGID_00000181086606515034772480000002219889459913065357_);}
	.st52{fill:url(#SVGID_00000145756603003430364760000004645335538479395720_);}
	.st53{fill:url(#SVGID_00000051342497399722743510000011216476591209215930_);}
	.st54{fill:url(#SVGID_00000036245340785694645440000017806556333910196379_);}
	.st55{fill:url(#SVGID_00000005955943790075798930000018254729408121196421_);}
	.st56{fill:url(#SVGID_00000096039846653641881640000001126253540934000303_);}
	.st57{fill:url(#SVGID_00000145748441923206040580000012433647114356993413_);}
	.st58{fill:url(#SVGID_00000109723975397949415650000010911685259590144936_);}
	.st59{fill:url(#SVGID_00000016797411939604139030000000490436707578826389_);}
	.st60{fill:url(#SVGID_00000005964106095640236930000014528477029338356107_);}
	.st61{fill:url(#SVGID_00000065068399721835356310000009768318332952359342_);}
	.st62{fill:url(#SVGID_00000173865473807943149420000014796452539128382372_);}
	.st63{fill:url(#SVGID_00000135672549072230272300000001073791716541675683_);}
	.st64{fill:url(#SVGID_00000036212227050332380030000011493246466288205995_);}
	.st65{fill:url(#SVGID_00000016069827749011392330000002905701286772883841_);}
	.st66{fill:url(#SVGID_00000075875282042065323650000014076944367252569478_);}
	.st67{fill:url(#SVGID_00000000188894029459441710000003357117179214889630_);}
	.st68{font-family:'Gotham-Bold';}
	.st69{font-size:14.6046px;}
</style>
<g>
	<path class="st0" d="M362,152.6h1.3v28.8l37.6-28.8h2.3l-25.8,19.7l27.9,27.6h-2.1l-27-26.6l-12.9,9.9v16.8H362L362,152.6
		L362,152.6L362,152.6z"/>
	<path class="st0" d="M433.9,152.6h1.3v47.3h-1.3V152.6z"/>
	<path class="st0" d="M469,152.6h1.7l37.4,45.6h0.1v-45.6h1.3v47.3h-1.7l-37.4-45.6h-0.1v45.6H469V152.6z"/>
	<path class="st0" d="M566.1,151.5c13.5,0,24.5,9.1,24.5,24.7c0,15.6-11,24.7-24.5,24.7c-13.5,0-24.5-9.1-24.5-24.7
		C541.6,160.6,552.6,151.5,566.1,151.5z M566.1,199.6c12.3,0,23.2-8.2,23.2-23.4s-10.9-23.4-23.2-23.4c-12.3,0-23.2,8.2-23.2,23.4
		S553.8,199.6,566.1,199.6z"/>
	<path class="st0" d="M639.6,152.6h1.7l21.7,47.3h-1.7l-7.1-15.6h-27.6l-7.1,15.6h-1.7L639.6,152.6z M627.3,182.9h26.4l-13.2-29
		L627.3,182.9z"/>
	<path class="st0" d="M692.1,152.6h1.3v22h37.9v-22h1.3v47.3h-1.3v-24h-37.9v24h-1.3V152.6z"/>
</g>
<g>
	<path class="st1" d="M362-288.5h1.3v28.8l37.6-28.8h2.3l-25.8,19.7l27.9,27.6h-2.1l-27-26.6l-12.9,9.9v16.8H362L362-288.5
		L362-288.5L362-288.5z"/>
	<path class="st1" d="M433.9-288.5h1.3v47.3h-1.3V-288.5z"/>
	<path class="st1" d="M469-288.5h1.7l37.4,45.6h0.1v-45.6h1.3v47.3h-1.7l-37.4-45.6h-0.1v45.6H469V-288.5z"/>
	<path class="st1" d="M566.1-289.5c13.5,0,24.5,9.1,24.5,24.7c0,15.6-11,24.7-24.5,24.7c-13.5,0-24.5-9.1-24.5-24.7
		C541.6-280.5,552.6-289.5,566.1-289.5z M566.1-241.4c12.3,0,23.2-8.2,23.2-23.4c0-15.2-10.9-23.4-23.2-23.4
		c-12.3,0-23.2,8.2-23.2,23.4C542.9-249.6,553.8-241.4,566.1-241.4z"/>
	<path class="st1" d="M639.6-288.5h1.7l21.7,47.3h-1.7l-7.1-15.6h-27.6l-7.1,15.6h-1.7L639.6-288.5z M627.3-258.1h26.4l-13.2-29
		L627.3-258.1z"/>
	<path class="st1" d="M692.1-288.5h1.3v22h37.9v-22h1.3v47.3h-1.3v-24h-37.9v24h-1.3V-288.5z"/>
</g>
<g>
	<path class="st1" d="M640.2-230.9l1.3,5.1c0.3,1.1,0.6,2.2,0.8,3.2h0.1c0.2-1,0.6-2.1,0.9-3.2l1.7-5.2h1.5l1.6,5.1
		c0.4,1.2,0.7,2.3,0.9,3.3h0.1c0.2-1,0.4-2.1,0.8-3.3l1.4-5.1h1.8l-3.3,10.1h-1.7l-1.5-4.8c-0.4-1.1-0.6-2.1-0.9-3.3h0
		c-0.3,1.2-0.6,2.3-0.9,3.3l-1.6,4.8h-1.7l-3.1-10.1L640.2-230.9L640.2-230.9L640.2-230.9z"/>
	<path class="st1" d="M655.7-225.5c0,2.5,1.6,3.5,3.5,3.5c1.3,0,2.1-0.2,2.8-0.5l0.3,1.3c-0.6,0.3-1.8,0.6-3.4,0.6
		c-3.1,0-5-2.1-5-5.1c0-3.1,1.8-5.5,4.7-5.5c3.3,0,4.2,2.9,4.2,4.8c0,0.4,0,0.7-0.1,0.9L655.7-225.5L655.7-225.5z M661.1-226.8
		c0-1.2-0.5-3-2.6-3c-1.9,0-2.7,1.7-2.8,3H661.1z"/>
	<path class="st1" d="M665.1-220.8c0-0.7,0.1-1.7,0.1-2.6v-12.2h1.8v6.4h0c0.6-1.1,1.8-1.9,3.5-1.9c2.5,0,4.3,2.1,4.3,5.2
		c0,3.6-2.3,5.4-4.5,5.4c-1.5,0-2.6-0.6-3.4-1.9h-0.1l-0.1,1.7L665.1-220.8L665.1-220.8L665.1-220.8z M667-224.8
		c0,0.2,0,0.5,0.1,0.7c0.4,1.3,1.4,2.2,2.8,2.2c1.9,0,3.1-1.6,3.1-3.9c0-2-1-3.8-3-3.8c-1.3,0-2.4,0.9-2.8,2.3
		c0,0.2-0.1,0.5-0.1,0.8V-224.8L667-224.8z"/>
	<path class="st1" d="M685.8-235.6v12.2c0,0.9,0,1.9,0.1,2.6h-1.7l-0.1-1.8h0c-0.6,1.1-1.8,2-3.5,2c-2.4,0-4.3-2.1-4.3-5.1
		c0-3.4,2.1-5.4,4.5-5.4c1.5,0,2.6,0.7,3.1,1.5h0v-6L685.8-235.6L685.8-235.6z M684-226.8c0-0.2,0-0.5-0.1-0.8
		c-0.3-1.2-1.3-2.1-2.7-2.1c-1.9,0-3,1.7-3,3.9c0,2.1,1,3.7,3,3.7c1.2,0,2.4-0.8,2.7-2.2c0.1-0.3,0.1-0.5,0.1-0.8V-226.8z"/>
	<path class="st1" d="M689.9-225.5c0,2.5,1.6,3.5,3.5,3.5c1.3,0,2.1-0.2,2.8-0.5l0.3,1.3c-0.6,0.3-1.8,0.6-3.4,0.6
		c-3.1,0-5-2.1-5-5.1c0-3.1,1.8-5.5,4.7-5.5c3.3,0,4.2,2.9,4.2,4.8c0,0.4,0,0.7-0.1,0.9L689.9-225.5L689.9-225.5z M695.3-226.8
		c0-1.2-0.5-3-2.6-3c-1.9,0-2.7,1.7-2.8,3H695.3z"/>
	<path class="st1" d="M699.1-222.7c0.5,0.4,1.5,0.7,2.4,0.7c1.3,0,2-0.7,2-1.5c0-0.9-0.5-1.4-1.9-1.9c-1.8-0.6-2.7-1.7-2.7-2.9
		c0-1.6,1.3-3,3.5-3c1,0,1.9,0.3,2.5,0.6l-0.5,1.3c-0.4-0.3-1.1-0.6-2.1-0.6c-1.1,0-1.7,0.6-1.7,1.4c0,0.8,0.6,1.2,1.9,1.7
		c1.8,0.7,2.7,1.5,2.7,3.1c0,1.8-1.4,3-3.8,3c-1.1,0-2.1-0.3-2.8-0.7L699.1-222.7z"/>
	<path class="st1" d="M709.7-233.7c0,0.6-0.4,1.1-1.2,1.1c-0.6,0-1.1-0.5-1.1-1.1c0-0.6,0.5-1.1,1.2-1.1
		C709.2-234.9,709.7-234.4,709.7-233.7z M707.6-220.8v-10.1h1.8v10.1H707.6z"/>
	<path class="st1" d="M721.2-230.9c0,0.7-0.1,1.5-0.1,2.8v5.9c0,2.3-0.5,3.7-1.4,4.6c-1,0.9-2.4,1.2-3.7,1.2c-1.2,0-2.6-0.3-3.4-0.8
		l0.5-1.4c0.7,0.4,1.7,0.8,3,0.8c1.9,0,3.3-1,3.3-3.5v-1.1h0c-0.6,0.9-1.7,1.7-3.2,1.7c-2.5,0-4.3-2.1-4.3-4.9
		c0-3.4,2.2-5.4,4.6-5.4c1.8,0,2.7,0.9,3.2,1.8h0l0.1-1.5L721.2-230.9L721.2-230.9z M719.3-226.9c0-0.3,0-0.6-0.1-0.8
		c-0.3-1.1-1.2-1.9-2.6-1.9c-1.8,0-3,1.5-3,3.8c0,2,1,3.6,3,3.6c1.1,0,2.2-0.7,2.6-1.9c0.1-0.3,0.1-0.7,0.1-1V-226.9z"/>
	<path class="st1" d="M724.1-228.2c0-1,0-1.9-0.1-2.7h1.6l0.1,1.7h0c0.5-1,1.7-1.9,3.3-1.9c1.4,0,3.6,0.8,3.6,4.3v6h-1.8v-5.8
		c0-1.6-0.6-3-2.3-3c-1.2,0-2.2,0.9-2.5,1.9c-0.1,0.2-0.1,0.5-0.1,0.9v6.1h-1.8L724.1-228.2L724.1-228.2z"/>
</g>
<g>
	<polygon class="st0" points="209.3,275.9 209.3,77.7 209.3,65 250.8,91.1 250.8,91.3 250.8,153.4 267.9,154.5 278.3,155.2 
		280.8,155.4 314.3,126.8 325.1,154.7 325.8,156.5 327.4,160.9 323.2,165.4 312.2,176.9 323.2,188.3 327.4,192.8 325.8,197.2 
		325.1,199 314.5,226.4 280.8,197 278.3,197.1 267.9,197.8 250.8,198.9 250.8,262.4 250.8,262.6 209.3,288.6 	"/>
	
		<radialGradient id="SVGID_1_" cx="461.2344" cy="-234.067" r="321.4934" gradientTransform="matrix(1 0 0 -1 -286.2998 -57.248)" gradientUnits="userSpaceOnUse">
		<stop  offset="0" style="stop-color:#99CC00"/>
		<stop  offset="1" style="stop-color:#99CC00"/>
	</radialGradient>
	<path class="st2" d="M321.9,120.4l-7.5,6.4L295,76.2L171.5,35.8l-108.1,141l108.1,140.9L295,277.6l19.6-51.2l7.5,6.5L300.9,290
		l-143.5,54.4L17.8,176.9L157.5,9.3l143.5,54.3L321.9,120.4z M327.4,192.8l6.1-15.9l-6.1-15.9l6.8-7l8.4,23l-8.4,22.9L327.4,192.8z"
		/>
</g>
<g>
	<g>
		<g class="st3">
			<g>
				<polygon class="st4" points="-202.8,247.3 -227.8,243.5 -233.4,237.7 -209.5,240.3 				"/>
			</g>
			<g>
				<polygon class="st4" points="-209.5,240.3 -233.4,237.7 -228.3,224.3 -203.4,224.4 				"/>
			</g>
			<g>
				<polygon class="st4" points="-203.4,224.4 -228.3,224.3 -233.4,211 -209.5,208.4 				"/>
			</g>
			<g>
				<polygon class="st4" points="-209.5,208.4 -233.4,211 -227.8,205.1 -202.8,201.4 				"/>
			</g>
			<g>
				<polygon class="st5" points="-209.5,208.4 -202.8,201.4 -194.3,224.4 -202.8,247.3 -209.5,240.3 -203.4,224.4 				"/>
				<g class="st3">
					<defs>
						<polygon id="SVGID_00000108989444408632421590000008301124507341050041_" class="st3" points="-209.5,208.4 -202.8,201.4 
							-194.3,224.4 -202.8,247.3 -209.5,240.3 -203.4,224.4 						"/>
					</defs>
					<clipPath id="SVGID_00000155858160645680697960000009351800928860593562_">
						<use xlink:href="#SVGID_00000108989444408632421590000008301124507341050041_"  style="overflow:visible;"/>
					</clipPath>
					<g style="clip-path:url(#SVGID_00000155858160645680697960000009351800928860593562_);">
						<g>
							<g>
								<defs>
									<polyline id="SVGID_00000020377894790688539460000001663100515525504900_" points="-202.8,247.3 -209.5,240.3 
										-203.4,224.4 -209.5,208.4 -202.8,201.4 -194.3,224.4 -202.8,247.3 									"/>
								</defs>
								<clipPath id="SVGID_00000173840748191902626560000000974685877416266684_">
									<use xlink:href="#SVGID_00000020377894790688539460000001663100515525504900_"  style="overflow:visible;"/>
								</clipPath>
								<g style="clip-path:url(#SVGID_00000173840748191902626560000000974685877416266684_);">
									
										<image style="overflow:visible;" width="16" height="46" xlink:href="B6374A08.png"  transform="matrix(1 0 0 1 -209.5107 201.4115)">
									</image>
								</g>
							</g>
						</g>
					</g>
				</g>
			</g>
		</g>
		<g class="st3">
			<g>
				<polygon class="st7" points="-365.4,365.3 -364,342.3 -260.6,308.7 -241.9,325.1 				"/>
			</g>
			<g>
				<polygon class="st4" points="-241.9,325.1 -260.6,308.7 -244.2,265.8 -222.4,273.9 				"/>
			</g>
			<g>
				<polygon class="st8" points="-473.5,224.4 -454.5,224.3 -364,342.3 -365.4,365.3 				"/>
			</g>
			<g>
				<polygon class="st4" points="-222.6,174.2 -244.4,182.4 -260.6,140 -241.9,123.6 				"/>
			</g>
			<g>
				<polygon class="st9" points="-365.4,83.3 -364,106.2 -454.5,224.3 -473.5,224.4 				"/>
			</g>
			<g>
				<polygon class="st4" points="-241.9,123.6 -260.6,140 -364,106.2 -365.4,83.3 				"/>
			</g>
			<g>
				<polygon class="st5" points="-241.9,123.6 -365.4,83.3 -473.5,224.4 -365.4,365.3 -241.9,325.1 -222.4,273.9 -214.9,280.4 
					-236,337.5 -379.4,391.8 -519.1,224.4 -379.4,56.8 -236,111.1 -215.1,167.9 -222.6,174.2 				"/>
				<g class="st3">
					<defs>
						<polygon id="SVGID_00000052102797458009537050000006852636368361720757_" class="st3" points="-241.9,123.6 -365.4,83.3 
							-473.5,224.4 -365.4,365.3 -241.9,325.1 -222.4,273.9 -214.9,280.4 -236,337.5 -379.4,391.8 -519.1,224.4 -379.4,56.8 
							-236,111.1 -215.1,167.9 -222.6,174.2 						"/>
					</defs>
					<clipPath id="SVGID_00000023990190751920141520000008254541867397514383_">
						<use xlink:href="#SVGID_00000052102797458009537050000006852636368361720757_"  style="overflow:visible;"/>
					</clipPath>
					<g style="clip-path:url(#SVGID_00000023990190751920141520000008254541867397514383_);">
						<g>
							<g>
								<defs>
									<polyline id="SVGID_00000094577177330944198120000013800020975341690290_" points="-236,337.5 -379.4,391.8 -519.1,224.4 
										-379.4,56.8 -236,111.1 -215.1,167.9 -222.6,174.2 -241.9,123.6 -365.4,83.3 -473.5,224.4 -365.4,365.3 -241.9,325.1 
										-222.4,273.9 -214.9,280.4 -236,337.5 									"/>
								</defs>
								<clipPath id="SVGID_00000074421471058604865680000004160851802402132150_">
									<use xlink:href="#SVGID_00000094577177330944198120000013800020975341690290_"  style="overflow:visible;"/>
								</clipPath>
								<g style="clip-path:url(#SVGID_00000074421471058604865680000004160851802402132150_);">
									
										<image style="overflow:visible;" width="305" height="336" xlink:href="B6374A09.png"  transform="matrix(1 0 0 1 -519.1368 56.7812)">
									</image>
								</g>
							</g>
						</g>
					</g>
				</g>
			</g>
		</g>
	</g>
</g>
<image style="overflow:visible;" width="733" height="371" xlink:href="../../../backup kinoah ftp à trier/2k16/img/kinoah-logo.png"  transform="matrix(1 0 0 1 1082.3511 34.997)">
</image>
<polygon class="st1" points="-600,-52 -600,-250.2 -600,-262.9 -558.4,-236.8 -558.4,-236.6 -558.4,-174.5 -541.4,-173.4 
	-530.9,-172.7 -528.5,-172.5 -494.9,-201.1 -484.2,-173.1 -483.5,-171.3 -481.8,-166.9 -486.1,-162.5 -497.1,-151 -486.1,-139.6 
	-481.8,-135.1 -483.5,-130.7 -484.2,-128.9 -494.7,-101.5 -528.5,-130.9 -530.9,-130.7 -541.4,-130.1 -558.4,-129 -558.4,-65.5 
	-558.4,-65.3 -600,-39.2 "/>
<radialGradient id="SVGID_00000042703676673819321350000002584658818547961493_" cx="-348.0434" cy="93.8084" r="321.4934" gradientTransform="matrix(1 0 0 -1 -286.2998 -57.248)" gradientUnits="userSpaceOnUse">
	<stop  offset="0" style="stop-color:#99CC00"/>
	<stop  offset="1" style="stop-color:#99CC00"/>
</radialGradient>
<path style="fill:url(#SVGID_00000042703676673819321350000002584658818547961493_);" d="M-487.4-207.5l-7.5,6.4l-19.3-50.6
	l-123.5-40.3l-108.1,141l108.1,140.9l123.5-40.2l19.6-51.2l7.5,6.5l-21.1,57.1l-143.5,54.4L-791.5-151l139.7-167.6l143.5,54.3
	L-487.4-207.5z M-481.8-135.1l6.1-15.9l-6.1-15.9l6.8-7l8.4,23l-8.4,22.9L-481.8-135.1z"/>
<g>
	<g class="st3">
		<g>
			<polygon class="st4" points="-333.3,-571 -358.4,-574.7 -364,-580.6 -340,-578 			"/>
		</g>
		<g>
			<polygon class="st12" points="-340,-578 -364,-580.6 -358.9,-593.9 -334,-593.9 			"/>
		</g>
		<g>
			<polygon class="st4" points="-334,-593.9 -358.9,-593.9 -364,-607.3 -340,-609.8 			"/>
		</g>
		<g>
			<polygon class="st13" points="-340,-609.8 -364,-607.3 -358.4,-613.2 -333.3,-616.8 			"/>
		</g>
	</g>
	<g class="st3">
		<g>
			<polygon class="st14" points="-496,-453 -494.6,-475.9 -391.2,-509.6 -372.5,-493.2 			"/>
		</g>
		<g>
			<polygon class="st12" points="-372.5,-493.2 -391.2,-509.6 -374.8,-552.5 -352.9,-544.3 			"/>
		</g>
		<g>
			<polygon class="st15" points="-604.1,-593.9 -585.1,-593.9 -494.6,-475.9 -496,-453 			"/>
		</g>
		<g>
			<polygon class="st4" points="-353.1,-644 -375,-635.9 -391.2,-678.3 -372.5,-694.6 			"/>
		</g>
		<g>
			<polygon class="st4" points="-496,-734.9 -494.6,-712 -585.1,-593.9 -604.1,-593.9 			"/>
		</g>
		<g>
			<polygon class="st4" points="-372.5,-694.6 -391.2,-678.3 -494.6,-712 -496,-734.9 			"/>
		</g>
	</g>
</g>
<g>
	<g>
		<g class="st3">
			<g>
				<polygon class="st4" points="-218.2,270.3 -242,264.1 -271.4,239.4 -251.6,242.2 				"/>
			</g>
			<g>
				<polygon class="st4" points="-252.6,200.8 -272.3,203.1 -244.2,177.7 -220.8,171.8 				"/>
			</g>
			<g>
				<polygon class="st4" points="-320.1,337 -331.6,322.3 -331.9,311.1 -320.4,324.2 				"/>
			</g>
			<g>
				<polygon class="st4" points="-320.4,324.2 -331.9,311.1 -336.3,135.6 -325.5,123.6 				"/>
			</g>
			<g>
				<polygon class="st4" points="-325.5,123.6 -336.3,135.6 -336.6,124.3 -325.8,110.6 				"/>
			</g>
			<g>
				<polygon class="st16" points="-325.8,110.6 -283.6,136.9 -282.1,199.4 -265.2,200.2 -255,200.6 -252.6,200.8 -220.8,171.8 
					-209.9,199.2 -209.1,201 -207.5,205.3 -211.4,209.8 -221.6,221.4 -210.9,232.4 -206.7,236.7 -208.2,241.1 -208.8,242.9 
					-218.2,270.3 -251.6,242.2 -254,242.4 -264.2,243.4 -281,245 -279.4,308.6 -320.1,337 -320.4,324.2 -325.5,123.6 				"/>
			</g>
		</g>
	</g>
</g>
<polygon class="st1" points="-458.2,-494.8 -458.2,-693 -458.2,-705.8 -416.6,-679.7 -416.6,-679.5 -416.6,-617.4 -399.6,-616.2 
	-389.1,-615.6 -386.7,-615.4 -353.1,-644 -342.4,-616 -341.7,-614.2 -340,-609.8 -344.3,-605.3 -355.2,-593.9 -344.3,-582.4 
	-340,-578 -341.7,-573.6 -342.4,-571.8 -352.9,-544.3 -386.7,-573.8 -389.1,-573.6 -399.6,-572.9 -416.6,-571.9 -416.6,-508.4 
	-416.6,-508.1 -458.2,-482.1 "/>
<polygon class="st1" points="-751.5,-681.7 -751.5,-879.9 -751.5,-892.7 -710,-866.6 -710,-866.4 -710,-804.3 -692.9,-803.1 
	-682.5,-802.5 -680,-802.3 -646.5,-830.9 -635.8,-802.9 -635.1,-801.1 -633.4,-796.7 -637.6,-792.2 -648.6,-780.8 -637.7,-769.3 
	-633.4,-764.9 -635.1,-760.5 -635.8,-758.7 -646.3,-731.2 -680,-760.7 -682.5,-760.5 -692.9,-759.8 -710,-758.8 -710,-695.3 
	-710,-695 -751.5,-669 "/>
<radialGradient id="SVGID_00000116947466744273483610000000986581666380349329_" cx="-206.2333" cy="536.6967" r="321.4934" gradientTransform="matrix(1 0 0 -1 -286.2998 -57.248)" gradientUnits="userSpaceOnUse">
	<stop  offset="0" style="stop-color:#99CC00"/>
	<stop  offset="1" style="stop-color:#99CC00"/>
</radialGradient>
<path style="fill:url(#SVGID_00000116947466744273483610000000986581666380349329_);" d="M-345.6-650.4l-7.5,6.4l-19.3-50.6
	L-496-734.9l-108.1,141L-496-453l123.5-40.2l19.6-51.2l7.5,6.5l-21.1,57.1L-510-426.4l-139.7-167.4L-510-761.5l143.5,54.3
	L-345.6-650.4z M-340-578l6.1-15.9l-6.1-15.9l6.8-7l8.4,23l-8.4,22.9L-340-578z"/>
<polygon class="st18" points="-374.8,-552.5 -399.6,-572.9 -386.7,-573.8 -352.9,-544.3 "/>
<polygon class="st18" points="-375,-635.9 -399.6,-616.2 -386.7,-615.4 -353.1,-644 "/>
<g>
	<g>
		<g class="st3">
			<g>
				<polygon class="st4" points="-304.2,-1108.7 -329.3,-1112.4 -334.9,-1118.3 -310.9,-1115.7 				"/>
			</g>
			<g>
				<polygon class="st12" points="-310.9,-1115.7 -334.9,-1118.3 -329.8,-1131.7 -304.9,-1131.6 				"/>
			</g>
			<g>
				<polygon class="st19" points="-304.9,-1131.6 -329.8,-1131.7 -334.9,-1145 -310.9,-1147.5 				"/>
			</g>
			<g>
				<polygon class="st13" points="-310.9,-1147.5 -334.9,-1145 -329.3,-1150.9 -304.2,-1154.5 				"/>
			</g>
		</g>
		<g class="st3">
			<g>
				<polygon class="st20" points="-466.8,-990.7 -465.5,-1013.6 -362.1,-1047.3 -343.4,-1030.9 				"/>
			</g>
			<g>
				<polygon class="st20" points="-343.4,-1030.9 -362.1,-1047.3 -345.7,-1090.2 -323.8,-1082 				"/>
			</g>
			<g>
				<polygon class="st20" points="-574.9,-1131.6 -556,-1131.7 -465.5,-1013.6 -466.8,-990.7 				"/>
			</g>
			<g>
				<polygon class="st19" points="-324,-1181.7 -345.9,-1173.6 -362.1,-1216 -343.4,-1232.3 				"/>
			</g>
			<g>
				<polygon class="st19" points="-466.8,-1272.6 -465.5,-1249.8 -556,-1131.7 -574.9,-1131.6 				"/>
			</g>
			<g>
				<polygon class="st19" points="-343.4,-1232.3 -362.1,-1216 -465.5,-1249.8 -466.8,-1272.6 				"/>
			</g>
		</g>
	</g>
	<polygon class="st1" points="-429,-1032.5 -429,-1230.7 -429,-1243.5 -387.5,-1217.4 -387.5,-1217.2 -387.5,-1155.1 
		-370.5,-1153.9 -360,-1153.3 -357.6,-1153.1 -324,-1181.7 -313.3,-1153.7 -312.6,-1151.9 -310.9,-1147.5 -315.2,-1143 
		-326.1,-1131.6 -315.2,-1120.2 -310.9,-1115.7 -312.6,-1111.3 -313.3,-1109.5 -323.8,-1082 -357.6,-1111.5 -360,-1111.3 
		-370.5,-1110.6 -387.5,-1109.6 -387.5,-1046.1 -387.5,-1045.8 -429,-1019.8 	"/>
	
		<radialGradient id="SVGID_00000060017231460368889940000013647270562581570947_" cx="-177.1304" cy="1074.3988" r="321.4934" gradientTransform="matrix(1 0 0 -1 -286.2998 -57.248)" gradientUnits="userSpaceOnUse">
		<stop  offset="0" style="stop-color:#99CC00"/>
		<stop  offset="1" style="stop-color:#99CC00"/>
	</radialGradient>
	<path style="fill:url(#SVGID_00000060017231460368889940000013647270562581570947_);" d="M-316.5-1188.1l-7.5,6.4l-19.3-50.6
		l-123.5-40.3l-108.1,141l108.1,140.9l123.5-40.2l19.6-51.2l7.5,6.5l-21.1,57.1l-143.5,54.4l-139.7-167.4l139.7-167.6l143.5,54.3
		L-316.5-1188.1z M-310.9-1115.7l6.1-15.9l-6.1-15.9l6.8-7l8.4,23l-8.4,22.9L-310.9-1115.7z"/>
	<polygon class="st19" points="-345.7,-1090.2 -370.5,-1110.6 -357.6,-1111.5 -323.8,-1082.1 	"/>
	<polygon class="st20" points="-345.9,-1173.6 -370.5,-1153.9 -357.6,-1153.1 -324,-1181.7 	"/>
</g>
<g>
	<g>
		<g class="st3">
			<g>
				<polygon class="st4" points="102.3,-1332.3 77.2,-1336.1 71.5,-1342 95.5,-1339.3 				"/>
			</g>
			<g>
				<polygon class="st12" points="95.5,-1339.3 71.5,-1342 76.6,-1355.3 101.6,-1355.3 				"/>
			</g>
			<g>
				<polygon class="st19" points="101.6,-1355.3 76.6,-1355.3 71.5,-1368.6 95.5,-1371.2 				"/>
			</g>
			<g>
				<polygon class="st13" points="95.5,-1371.2 71.5,-1368.6 77.2,-1374.5 102.3,-1378.2 				"/>
			</g>
		</g>
		<g class="st3">
			<g>
				<polygon class="st20" points="-60.4,-1214.3 -59,-1237.3 44.4,-1271 63.1,-1254.6 				"/>
			</g>
			<g>
				<polygon class="st20" points="63.1,-1254.6 44.4,-1271 60.8,-1313.8 82.6,-1305.7 				"/>
			</g>
			<g>
				<polygon class="st20" points="-168.5,-1355.3 -149.5,-1355.3 -59,-1237.3 -60.4,-1214.3 				"/>
			</g>
			<g>
				<polygon class="st19" points="82.4,-1405.4 60.6,-1397.3 44.4,-1439.6 63.1,-1456 				"/>
			</g>
			<g>
				<polygon class="st19" points="-60.4,-1496.3 -59,-1473.4 -149.5,-1355.3 -168.5,-1355.3 				"/>
			</g>
			<g>
				<polygon class="st19" points="63.1,-1456 44.4,-1439.6 -59,-1473.4 -60.4,-1496.3 				"/>
			</g>
		</g>
	</g>
	<polygon class="st1" points="-22.6,-1256.2 -22.6,-1454.4 -22.6,-1467.2 18.9,-1441.1 18.9,-1440.8 18.9,-1378.7 36,-1377.6 
		46.4,-1376.9 48.9,-1376.8 82.4,-1405.4 93.2,-1377.4 93.9,-1375.6 95.5,-1371.2 91.3,-1366.7 80.3,-1355.3 91.3,-1343.8 
		95.5,-1339.3 93.9,-1334.9 93.2,-1333.1 82.6,-1305.7 48.9,-1335.2 46.4,-1335 36,-1334.3 18.9,-1333.3 18.9,-1269.8 18.9,-1269.5 
		-22.6,-1243.5 	"/>
	
		<radialGradient id="SVGID_00000116939158548402318270000004733064814832155797_" cx="231.29" cy="1298.0585" r="317.3708" gradientTransform="matrix(1 0 0 -1 -286.2998 -57.248)" gradientUnits="userSpaceOnUse">
		<stop  offset="0" style="stop-color:#99CC00"/>
		<stop  offset="1" style="stop-color:#99CC00"/>
	</radialGradient>
	<path style="fill:url(#SVGID_00000116939158548402318270000004733064814832155797_);" d="M90-1411.7l-7.5,6.4L63.1-1456
		l-123.5-40.3l-108.1,141l108.1,140.9l123.5-40.2l19.6-51.2l7.5,6.5L71-1247.5c-1.3,3.4-3.9,6.1-7.3,7.4l-129.8,49.2
		c-5,1.9-10.6,0.4-14.1-3.7l-127.3-152.6c-3.9-4.6-3.9-11.4,0-16L-80.1-1516c3.4-4.1,9.1-5.6,14.1-3.7l129.8,49.1
		c3.4,1.3,6.1,4,7.3,7.4L90-1411.7z M95.5-1339.3l6.1-15.9l-6.1-15.9l6.8-7l8.4,23l-8.4,22.9L95.5-1339.3z"/>
	<polygon class="st19" points="60.8,-1313.8 36,-1334.3 48.9,-1335.2 82.6,-1305.7 	"/>
	<polygon class="st20" points="60.5,-1397.3 36,-1377.6 48.9,-1376.8 82.4,-1405.4 	"/>
</g>
<g>
	
		<image style="overflow:visible;opacity:0.3;" width="442" height="452" xlink:href="B6374A0A.png"  transform="matrix(1 0 0 1 57 -1056.697)">
	</image>
	<g>
		<g>
			<g>
				<g class="st3">
					<g>
						<polygon class="st4" points="429.7,-807.8 404.7,-811.6 399,-817.5 423,-814.9 						"/>
					</g>
					<g>
						<polygon class="st12" points="423,-814.9 399,-817.5 404.1,-830.8 429.1,-830.8 						"/>
					</g>
					<g>
						<polygon class="st19" points="429.1,-830.8 404.1,-830.8 399,-844.2 423,-846.7 						"/>
					</g>
					<g>
						<polygon class="st13" points="423,-846.7 399,-844.2 404.7,-850 429.7,-853.7 						"/>
					</g>
				</g>
				<g class="st3">
					<g>
						<polygon class="st20" points="267.1,-689.9 268.4,-712.8 371.8,-746.5 390.5,-730.1 						"/>
					</g>
					<g>
						<polygon class="st20" points="390.5,-730.1 371.8,-746.5 388.2,-789.3 410.1,-781.2 						"/>
					</g>
					<g>
						<polygon class="st20" points="159,-830.8 177.9,-830.8 268.4,-712.8 267.1,-689.9 						"/>
					</g>
					<g>
						<polygon class="st19" points="409.9,-880.9 388,-872.8 371.8,-915.2 390.5,-931.5 						"/>
					</g>
					<g>
						<polygon class="st19" points="267.1,-971.8 268.4,-948.9 177.9,-830.8 159,-830.8 						"/>
					</g>
					<g>
						<polygon class="st19" points="390.5,-931.5 371.8,-915.2 268.4,-948.9 267.1,-971.8 						"/>
					</g>
				</g>
			</g>
			
				<radialGradient id="SVGID_00000110452087991257360270000000119652038185165500_" cx="558.7408" cy="773.5867" r="317.3708" gradientTransform="matrix(1 0 0 -1 -286.2998 -57.248)" gradientUnits="userSpaceOnUse">
				<stop  offset="0" style="stop-color:#99CC00"/>
				<stop  offset="1" style="stop-color:#99CC00"/>
			</radialGradient>
			<path style="fill:url(#SVGID_00000110452087991257360270000000119652038185165500_);" d="M417.4-887.3l-7.5,6.4l-19.3-50.6
				l-123.5-40.3L159-830.8l108.1,140.9l123.5-40.2l19.6-51.2l7.5,6.5L398.5-723c-1.3,3.4-3.9,6.1-7.3,7.4l-129.8,49.2
				c-5,1.9-10.6,0.4-14.1-3.7L120-822.7c-3.9-4.6-3.9-11.4,0-16l127.3-152.7c3.4-4.1,9.1-5.6,14.1-3.7l129.8,49.1
				c3.4,1.3,6.1,4,7.3,7.4L417.4-887.3z M423-814.9l6.1-15.9l-6.1-15.9l6.8-7l8.4,23l-8.4,22.9L423-814.9z"/>
			<polygon class="st19" points="388.2,-789.3 363.5,-809.8 376.3,-810.7 410.1,-781.2 			"/>
			<polygon class="st20" points="388,-872.8 363.5,-853.1 376.3,-852.3 409.9,-880.9 			"/>
		</g>
	</g>
</g>
<g>
	<g class="st3">
		<g>
			<polygon class="st4" points="468.9,-1332.3 443.8,-1336.1 438.2,-1342 462.2,-1339.3 			"/>
		</g>
		<g>
			<polygon class="st12" points="462.2,-1339.3 438.2,-1342 443.3,-1355.3 468.2,-1355.3 			"/>
		</g>
		<g>
			<polygon class="st19" points="468.2,-1355.3 443.3,-1355.3 438.2,-1368.6 462.2,-1371.2 			"/>
		</g>
		<g>
			<polygon class="st13" points="462.2,-1371.2 438.2,-1368.6 443.8,-1374.5 468.9,-1378.2 			"/>
		</g>
	</g>
	<g class="st3">
		<g>
			<polygon class="st20" points="306.3,-1214.3 307.6,-1237.3 411,-1271 429.7,-1254.6 			"/>
		</g>
		<g>
			<polygon class="st20" points="429.7,-1254.6 411,-1271 427.4,-1313.8 449.3,-1305.7 			"/>
		</g>
		<g>
			<polygon class="st20" points="198.2,-1355.3 217.1,-1355.3 307.6,-1237.3 306.3,-1214.3 			"/>
		</g>
		<g>
			<polygon class="st19" points="449.1,-1405.4 427.2,-1397.3 411,-1439.6 429.7,-1456 			"/>
		</g>
		<g>
			<polygon class="st19" points="306.3,-1496.3 307.6,-1473.4 217.1,-1355.3 198.2,-1355.3 			"/>
		</g>
		<g>
			<polygon class="st19" points="429.7,-1456 411,-1439.6 307.6,-1473.4 306.3,-1496.3 			"/>
		</g>
	</g>
</g>
<polygon class="st1" points="344.1,-1256.2 344.1,-1454.4 344.1,-1467.2 385.6,-1441.1 385.6,-1440.8 385.6,-1378.7 402.6,-1377.6 
	413.1,-1376.9 415.5,-1376.8 449.1,-1405.4 459.8,-1377.4 460.5,-1375.6 462.2,-1371.2 457.9,-1366.7 447,-1355.3 457.9,-1343.8 
	462.2,-1339.3 460.5,-1334.9 459.8,-1333.1 449.3,-1305.7 415.5,-1335.2 413.1,-1335 402.6,-1334.3 385.6,-1333.3 385.6,-1269.8 
	385.6,-1269.5 344.1,-1243.5 "/>
<radialGradient id="SVGID_00000021121056409612008880000000906097071520303765_" cx="597.9283" cy="1298.0585" r="317.3708" gradientTransform="matrix(1 0 0 -1 -286.2998 -57.248)" gradientUnits="userSpaceOnUse">
	<stop  offset="0" style="stop-color:#99CC00"/>
	<stop  offset="1" style="stop-color:#99CC00"/>
</radialGradient>
<path style="fill:url(#SVGID_00000021121056409612008880000000906097071520303765_);" d="M456.6-1411.7l-7.5,6.4l-19.3-50.6
	l-123.5-40.3l-108.1,141l108.1,140.9l123.5-40.2l19.6-51.2l7.5,6.5l-19.1,51.8c-1.3,3.4-3.9,6.1-7.3,7.4l-129.8,49.2
	c-5,1.9-10.6,0.4-14.1-3.7l-127.3-152.6c-3.9-4.6-3.9-11.4,0-16L286.5-1516c3.4-4.1,9.1-5.6,14.1-3.7l129.8,49.1
	c3.4,1.3,6.1,4,7.3,7.4L456.6-1411.7z M462.2-1339.3l6.1-15.9l-6.1-15.9l6.8-7l8.4,23l-8.4,22.9L462.2-1339.3z"/>
<polygon class="st1" points="1048.7,-1499.5 1048.7,-1697.7 1048.7,-1710.5 1090.3,-1684.4 1090.3,-1684.2 1090.3,-1622.1 
	1107.3,-1620.9 1117.8,-1620.3 1120.2,-1620.1 1153.8,-1648.7 1164.5,-1620.7 1165.2,-1618.9 1166.8,-1614.5 1162.6,-1610 
	1151.6,-1598.6 1162.6,-1587.1 1166.8,-1582.7 1165.2,-1578.3 1164.5,-1576.5 1154,-1549 1120.2,-1578.5 1117.8,-1578.3 
	1107.3,-1577.6 1090.3,-1576.6 1090.3,-1513.1 1090.3,-1512.8 1048.7,-1486.8 "/>
<polygon class="st1" points="1419.1,-1597.6 1419.1,-1795.8 1419.1,-1808.6 1460.7,-1782.5 1460.7,-1782.3 1460.7,-1720.2 
	1477.7,-1719 1488.2,-1718.4 1490.6,-1718.2 1524.2,-1746.8 1534.9,-1718.8 1535.6,-1717 1537.2,-1712.6 1533,-1708.1 1522,-1696.7 
	1533,-1685.2 1537.2,-1680.8 1535.6,-1676.4 1534.9,-1674.5 1524.4,-1647.1 1490.6,-1676.6 1488.2,-1676.4 1477.7,-1675.7 
	1460.7,-1674.7 1460.7,-1611.2 1460.7,-1610.9 1419.1,-1584.9 "/>
<polygon class="st1" points="1706,-1630.8 1534.4,-1531.7 1523.3,-1525.3 1525.2,-1574.3 1525.4,-1574.4 1579.2,-1605.5 
	1571.6,-1620.8 1567,-1630.2 1565.9,-1632.4 1524.4,-1647.1 1543.2,-1670.4 1544.4,-1671.9 1547.4,-1675.6 1553.4,-1674.1 
	1568.8,-1670.4 1573.2,-1685.6 1575,-1691.5 1579.6,-1692.3 1581.6,-1692.5 1610.6,-1697.1 1601.9,-1653.2 1603.3,-1651.2 
	1609.1,-1642.5 1618.6,-1628.2 1673.5,-1659.9 1673.8,-1660.1 1717.1,-1637.1 "/>
<polygon class="st1" points="1534.4,-1862.7 1706,-1763.6 1717.1,-1757.2 1673.7,-1734.3 1673.5,-1734.4 1619.7,-1765.4 
	1610.2,-1751.2 1604.4,-1742.5 1603,-1740.5 1611,-1697.1 1581.4,-1701.8 1579.5,-1702.1 1574.9,-1702.9 1573.1,-1708.8 
	1568.7,-1724 1553.3,-1720.3 1547.3,-1718.8 1544.3,-1722.4 1543.1,-1724 1524.6,-1746.8 1567,-1761.3 1568.1,-1763.5 
	1572.7,-1772.9 1580.3,-1788.2 1525.3,-1819.9 1525.1,-1820.1 1523.3,-1869 "/>
<polygon class="st1" points="1928,-1307 1729.8,-1307 1717.1,-1307 1743.2,-1348.5 1743.4,-1348.5 1805.5,-1348.5 1806.6,-1365.6 
	1807.3,-1376 1807.5,-1378.5 1778.9,-1412 1806.8,-1422.7 1808.6,-1423.5 1813,-1425.1 1817.5,-1420.9 1829,-1409.9 1840.4,-1420.8 
	1844.9,-1425.1 1849.3,-1423.5 1851.1,-1422.7 1878.5,-1412.2 1849.1,-1378.5 1849.2,-1376 1849.9,-1365.6 1851,-1348.5 
	1914.5,-1348.5 1914.7,-1348.5 1940.7,-1307 "/>
<polygon class="st1" points="1894.9,-1593.9 1994,-1422.3 2000.3,-1411.2 1951.3,-1413.1 1951.2,-1413.2 1920.2,-1467 
	1904.8,-1459.5 1895.5,-1454.8 1893.3,-1453.8 1878.5,-1412.2 1855.2,-1431.1 1853.7,-1432.3 1850.1,-1435.3 1851.5,-1441.3 
	1855.3,-1456.7 1840.1,-1461.1 1834.2,-1462.9 1833.4,-1467.5 1833.1,-1469.4 1828.5,-1498.4 1872.4,-1489.8 1874.5,-1491.2 
	1883.2,-1497 1897.4,-1506.4 1865.7,-1561.4 1865.6,-1561.6 1888.5,-1604.9 "/>
<polygon class="st1" points="1663,-1422.2 1762.1,-1593.9 1768.5,-1604.9 1791.4,-1561.6 1791.3,-1561.4 1760.2,-1507.6 
	1774.4,-1498.1 1783.1,-1492.3 1785.1,-1490.9 1828.5,-1498.9 1823.8,-1469.3 1823.5,-1467.4 1822.7,-1462.8 1816.9,-1461 
	1801.6,-1456.6 1805.4,-1441.2 1806.8,-1435.2 1803.2,-1432.2 1801.7,-1431 1778.9,-1412.5 1764.3,-1454.9 1762.1,-1455.9 
	1752.8,-1460.6 1737.5,-1468.2 1705.7,-1413.2 1705.6,-1413 1656.6,-1411.2 "/>
<radialGradient id="SVGID_00000007406490677022094640000000231166060524540600_" cx="1302.6091" cy="1541.3925" r="317.3708" gradientTransform="matrix(1 0 0 -1 -286.2998 -57.248)" gradientUnits="userSpaceOnUse">
	<stop  offset="0" style="stop-color:#99CC00"/>
	<stop  offset="1" style="stop-color:#99CC00"/>
</radialGradient>
<path style="fill:url(#SVGID_00000007406490677022094640000000231166060524540600_);" d="M1161.3-1655.1l-7.5,6.4l-19.3-50.6
	l-123.5-40.3l-108.1,141l108.1,140.9l123.5-40.2l19.6-51.2l7.5,6.5l-19.1,51.8c-1.3,3.4-3.9,6.1-7.3,7.4l-129.8,49.2
	c-5,1.9-10.6,0.4-14.1-3.7l-127.3-152.6c-3.9-4.6-3.9-11.4,0-16l127.3-152.7c3.4-4.1,9.1-5.6,14.1-3.7l129.8,49.1
	c3.4,1.3,6.1,4,7.3,7.4L1161.3-1655.1z M1166.9-1582.7l6.1-15.9l-6.1-15.9l6.8-7l8.4,23l-8.4,22.9L1166.9-1582.7z"/>
<polygon class="st1" points="204.7,-165 204.7,-363.2 204.7,-376 246.2,-349.9 246.2,-349.7 246.2,-287.6 263.3,-286.4 
	273.7,-285.7 276.1,-285.6 309.7,-314.2 320.4,-286.2 321.1,-284.4 322.8,-280 318.6,-275.5 307.6,-264.1 318.5,-252.6 
	322.8,-248.1 321.1,-243.8 320.4,-241.9 309.9,-214.5 276.1,-244 273.7,-243.8 263.3,-243.1 246.2,-242.1 246.2,-178.6 
	246.2,-178.3 204.7,-152.3 "/>
<radialGradient id="SVGID_00000067228071035747669930000016441988943101140409_" cx="458.5412" cy="206.8713" r="317.3708" gradientTransform="matrix(1 0 0 -1 -286.2998 -57.248)" gradientUnits="userSpaceOnUse">
	<stop  offset="0" style="stop-color:#99CC00"/>
	<stop  offset="1" style="stop-color:#99CC00"/>
</radialGradient>
<path style="fill:url(#SVGID_00000067228071035747669930000016441988943101140409_);" d="M317.2-320.6l-7.5,6.4l-19.3-50.6
	l-123.5-40.3l-108.1,141l108.1,140.9l123.5-40.2l19.6-51.2l7.5,6.5l-19.1,51.8c-1.3,3.4-3.9,6.1-7.3,7.4L161.2-99.7
	c-5,1.9-10.6,0.4-14.1-3.7L19.8-256c-3.9-4.6-3.9-11.4,0-16l127.3-152.7c3.4-4.1,9.1-5.6,14.1-3.7L291-379.3c3.4,1.3,6.1,4,7.3,7.4
	L317.2-320.6z M322.8-248.2l6.1-15.9l-6.1-15.9l6.8-7l8.4,23l-8.4,22.9L322.8-248.2z"/>
<g>
	<path class="st1" d="M362,685.8h1.3v28.8l37.6-28.8h2.3l-25.8,19.7l27.9,27.6h-2.1l-27-26.6l-12.9,9.9v16.8H362L362,685.8
		L362,685.8L362,685.8z"/>
	<path class="st1" d="M433.9,685.8h1.3v47.3h-1.3V685.8z"/>
	<path class="st1" d="M469,685.8h1.7l37.4,45.6h0.1v-45.6h1.3v47.3h-1.7l-37.4-45.6h-0.1v45.6H469V685.8z"/>
	<path class="st1" d="M566.1,684.8c13.5,0,24.5,9.1,24.5,24.7c0,15.6-11,24.7-24.5,24.7c-13.5,0-24.5-9.1-24.5-24.7
		C541.6,693.8,552.6,684.8,566.1,684.8z M566.1,732.9c12.3,0,23.2-8.2,23.2-23.4c0-15.2-10.9-23.4-23.2-23.4
		c-12.3,0-23.2,8.2-23.2,23.4C542.9,724.7,553.8,732.9,566.1,732.9z"/>
	<path class="st1" d="M639.6,685.8h1.7l21.7,47.3h-1.7l-7.1-15.6h-27.6l-7.1,15.6h-1.7L639.6,685.8z M627.3,716.2h26.4l-13.2-29
		L627.3,716.2z"/>
	<path class="st1" d="M692.1,685.8h1.3v22h37.9v-22h1.3v47.3h-1.3v-24h-37.9v24h-1.3V685.8z"/>
</g>
<g>
	<path class="st1" d="M640.2,743.4l1.3,5.1c0.3,1.1,0.6,2.2,0.8,3.2h0.1c0.2-1,0.6-2.1,0.9-3.2l1.7-5.2h1.5l1.6,5.1
		c0.4,1.2,0.7,2.3,0.9,3.3h0.1c0.2-1,0.4-2.1,0.8-3.3l1.4-5.1h1.8l-3.3,10.1h-1.7l-1.5-4.8c-0.4-1.1-0.6-2.1-0.9-3.3h0
		c-0.3,1.2-0.6,2.3-0.9,3.3l-1.6,4.8h-1.7l-3.1-10.1L640.2,743.4L640.2,743.4L640.2,743.4z"/>
	<path class="st1" d="M655.7,748.8c0,2.5,1.6,3.5,3.5,3.5c1.3,0,2.1-0.2,2.8-0.5l0.3,1.3c-0.6,0.3-1.8,0.6-3.4,0.6
		c-3.1,0-5-2.1-5-5.1c0-3.1,1.8-5.5,4.7-5.5c3.3,0,4.2,2.9,4.2,4.8c0,0.4,0,0.7-0.1,0.9L655.7,748.8L655.7,748.8z M661.1,747.5
		c0-1.2-0.5-3-2.6-3c-1.9,0-2.7,1.7-2.8,3H661.1z"/>
	<path class="st1" d="M665.1,753.5c0-0.7,0.1-1.7,0.1-2.6v-12.2h1.8v6.4h0c0.6-1.1,1.8-1.9,3.5-1.9c2.5,0,4.3,2.1,4.3,5.2
		c0,3.6-2.3,5.4-4.5,5.4c-1.5,0-2.6-0.6-3.4-1.9h-0.1l-0.1,1.7L665.1,753.5L665.1,753.5L665.1,753.5z M667,749.5
		c0,0.2,0,0.5,0.1,0.7c0.4,1.3,1.4,2.2,2.8,2.2c1.9,0,3.1-1.6,3.1-3.9c0-2-1-3.8-3-3.8c-1.3,0-2.4,0.9-2.8,2.3
		c0,0.2-0.1,0.5-0.1,0.8V749.5L667,749.5z"/>
	<path class="st1" d="M685.8,738.7v12.2c0,0.9,0,1.9,0.1,2.6h-1.7l-0.1-1.8h0c-0.6,1.1-1.8,2-3.5,2c-2.4,0-4.3-2.1-4.3-5.1
		c0-3.4,2.1-5.4,4.5-5.4c1.5,0,2.6,0.7,3.1,1.5h0v-6L685.8,738.7L685.8,738.7z M684,747.5c0-0.2,0-0.5-0.1-0.8
		c-0.3-1.2-1.3-2.1-2.7-2.1c-1.9,0-3,1.7-3,3.9c0,2.1,1,3.7,3,3.7c1.2,0,2.4-0.8,2.7-2.2c0.1-0.3,0.1-0.5,0.1-0.8V747.5z"/>
	<path class="st1" d="M689.9,748.8c0,2.5,1.6,3.5,3.5,3.5c1.3,0,2.1-0.2,2.8-0.5l0.3,1.3c-0.6,0.3-1.8,0.6-3.4,0.6
		c-3.1,0-5-2.1-5-5.1c0-3.1,1.8-5.5,4.7-5.5c3.3,0,4.2,2.9,4.2,4.8c0,0.4,0,0.7-0.1,0.9L689.9,748.8L689.9,748.8z M695.3,747.5
		c0-1.2-0.5-3-2.6-3c-1.9,0-2.7,1.7-2.8,3H695.3z"/>
	<path class="st1" d="M699.1,751.6c0.5,0.4,1.5,0.7,2.4,0.7c1.3,0,2-0.7,2-1.5c0-0.9-0.5-1.4-1.9-1.9c-1.8-0.6-2.7-1.7-2.7-2.9
		c0-1.6,1.3-3,3.5-3c1,0,1.9,0.3,2.5,0.6l-0.5,1.3c-0.4-0.3-1.1-0.6-2.1-0.6c-1.1,0-1.7,0.6-1.7,1.4c0,0.8,0.6,1.2,1.9,1.7
		c1.8,0.7,2.7,1.5,2.7,3.1c0,1.8-1.4,3-3.8,3c-1.1,0-2.1-0.3-2.8-0.7L699.1,751.6z"/>
	<path class="st1" d="M709.7,740.6c0,0.6-0.4,1.1-1.2,1.1c-0.6,0-1.1-0.5-1.1-1.1c0-0.6,0.5-1.2,1.2-1.2
		C709.2,739.4,709.7,739.9,709.7,740.6z M707.6,753.5v-10.1h1.8v10.1H707.6z"/>
	<path class="st1" d="M721.2,743.4c0,0.7-0.1,1.5-0.1,2.8v5.9c0,2.3-0.5,3.7-1.4,4.6c-1,0.9-2.4,1.2-3.7,1.2c-1.2,0-2.6-0.3-3.4-0.8
		l0.5-1.4c0.7,0.4,1.7,0.8,3,0.8c1.9,0,3.3-1,3.3-3.5v-1.1h0c-0.6,0.9-1.7,1.7-3.2,1.7c-2.5,0-4.3-2.1-4.3-4.9
		c0-3.4,2.2-5.4,4.6-5.4c1.8,0,2.7,0.9,3.2,1.8h0l0.1-1.5L721.2,743.4L721.2,743.4z M719.3,747.4c0-0.3,0-0.6-0.1-0.8
		c-0.3-1.1-1.2-1.9-2.6-1.9c-1.8,0-3,1.5-3,3.8c0,2,1,3.6,3,3.6c1.1,0,2.2-0.7,2.6-1.9c0.1-0.3,0.1-0.7,0.1-1V747.4z"/>
	<path class="st1" d="M724.1,746.1c0-1,0-1.9-0.1-2.7h1.6l0.1,1.7h0c0.5-1,1.7-1.9,3.3-1.9c1.4,0,3.6,0.8,3.6,4.3v6h-1.8v-5.8
		c0-1.6-0.6-3-2.3-3c-1.2,0-2.2,0.9-2.5,1.9c-0.1,0.2-0.1,0.5-0.1,0.9v6.1h-1.8L724.1,746.1L724.1,746.1z"/>
</g>
<polygon class="st1" points="242.2,773.6 242.2,646.8 242.2,638.6 268.7,655.3 268.7,655.5 268.7,695.2 279.6,695.9 286.3,696.3 
	287.9,696.5 309.3,678.2 316.2,696.1 316.6,697.2 317.7,700 315,702.9 308,710.2 315,717.5 317.7,720.4 316.6,723.2 316.2,724.4 
	309.5,741.9 287.9,723.1 286.3,723.2 279.6,723.6 268.7,724.3 268.7,764.9 268.7,765.1 242.2,781.7 "/>
<radialGradient id="SVGID_00000110435383490646091520000007964402876079818659_" cx="507.7216" cy="-767.4265" r="202.9796" gradientTransform="matrix(1 0 0 -1 -286.2998 -57.248)" gradientUnits="userSpaceOnUse">
	<stop  offset="0" style="stop-color:#99CC00"/>
	<stop  offset="1" style="stop-color:#99CC00"/>
</radialGradient>
<path style="fill:url(#SVGID_00000110435383490646091520000007964402876079818659_);" d="M314.1,674.1l-4.8,4.1L297,645.8L218,620
	l-69.1,90.2l69.1,90.1l79-25.7l12.5-32.7l4.8,4.1L302,779.1c-0.8,2.2-2.5,3.9-4.7,4.7l-83,31.5c-3.2,1.2-6.8,0.3-9-2.4l-81.4-97.6
	c-2.5-3-2.5-7.3,0-10.3l81.4-97.7c2.2-2.6,5.8-3.6,9-2.4l83,31.4c2.2,0.8,3.9,2.5,4.7,4.7L314.1,674.1z M317.7,720.4l3.9-10.2
	l-3.9-10.2l4.3-4.5l5.4,14.7l-5.4,14.6L317.7,720.4z"/>
<radialGradient id="SVGID_00000168079200618944148140000003090780791614967475_" cx="1833.254" cy="619.4758" r="317.3708" gradientTransform="matrix(1 0 0 -1 -286.2998 -57.248)" gradientUnits="userSpaceOnUse">
	<stop  offset="0" style="stop-color:#99CC00"/>
	<stop  offset="1" style="stop-color:#99CC00"/>
</radialGradient>
<path style="fill:url(#SVGID_00000168079200618944148140000003090780791614967475_);" d="M1691.9-733.2l-7.5,6.4l-19.3-50.6
	l-123.5-40.3l-108.1,141l108.1,140.9l123.5-40.2l19.6-51.2l7.5,6.5l-19.1,51.8c-1.3,3.4-3.9,6.1-7.3,7.4l-129.8,49.2
	c-5,1.9-10.6,0.4-14.1-3.7l-127.3-152.6c-3.9-4.6-3.9-11.4,0-16l127.3-152.7c3.4-4.1,9.1-5.6,14.1-3.7l129.8,49.1
	c3.4,1.3,6.1,4,7.3,7.4L1691.9-733.2z M1697.5-660.8l6.1-15.9l-6.1-15.9l6.8-7l8.4,23l-8.4,22.9L1697.5-660.8z"/>
<polygon class="st19" points="427.4,-1313.8 402.6,-1334.3 415.5,-1335.2 449.3,-1305.7 "/>
<polygon class="st20" points="427.2,-1397.3 402.6,-1377.6 415.5,-1376.8 449.1,-1405.4 "/>
<polygon class="st1" points="1729,-2081 1927.2,-2081 1939.9,-2081 1913.8,-2039.5 1913.6,-2039.5 1851.5,-2039.5 1850.4,-2022.4 
	1849.7,-2012 1849.5,-2009.5 1878.1,-1976 1850.1,-1965.3 1848.3,-1964.5 1843.9,-1962.9 1839.5,-1967.1 1828,-1978.1 
	1816.6,-1967.2 1812.1,-1962.9 1807.7,-1964.5 1805.9,-1965.3 1778.5,-1975.8 1807.9,-2009.5 1807.7,-2012 1807.1,-2022.4 
	1806,-2039.5 1742.5,-2039.5 1742.3,-2039.5 1716.2,-2081 "/>
<polygon class="st1" points="1762.1,-1794.1 1663,-1965.7 1656.6,-1976.8 1705.6,-1974.9 1705.7,-1974.8 1736.8,-1921 
	1752.1,-1928.5 1761.5,-1933.2 1763.7,-1934.2 1778.5,-1975.8 1801.7,-1956.9 1803.3,-1955.7 1806.9,-1952.7 1805.5,-1946.7 
	1801.7,-1931.3 1816.9,-1926.9 1822.8,-1925.1 1823.6,-1920.5 1823.9,-1918.6 1828.5,-1889.6 1784.5,-1898.2 1782.5,-1896.8 
	1773.8,-1891 1759.5,-1881.6 1791.3,-1826.6 1791.4,-1826.4 1768.5,-1783.1 "/>
<polygon class="st1" points="1994,-1965.8 1894.9,-1794.1 1888.5,-1783.1 1865.6,-1826.5 1865.7,-1826.6 1896.8,-1880.4 
	1882.5,-1889.9 1873.9,-1895.7 1871.8,-1897.1 1828.5,-1889.1 1833.2,-1918.7 1833.4,-1920.6 1834.2,-1925.3 1840.1,-1927 
	1855.3,-1931.4 1851.6,-1946.8 1850.1,-1952.8 1853.8,-1955.8 1855.3,-1957 1878.1,-1975.5 1892.6,-1933.1 1894.8,-1932.1 
	1904.2,-1927.4 1919.5,-1919.8 1951.3,-1974.8 1951.4,-1975 2000.3,-1976.8 "/>
<polygon class="st1" points="2238.6,-1796.7 2238.6,-1598.5 2238.6,-1585.7 2197.1,-1611.8 2197.1,-1612 2197.1,-1674.1 
	2180.1,-1675.3 2169.6,-1675.9 2167.2,-1676.1 2133.6,-1647.5 2122.9,-1675.5 2122.2,-1677.3 2120.5,-1681.7 2124.8,-1686.2 
	2135.7,-1697.6 2124.8,-1709.1 2120.5,-1713.5 2122.2,-1717.9 2122.9,-1719.7 2133.4,-1747.2 2167.2,-1717.7 2169.6,-1717.9 
	2180.1,-1718.6 2197.1,-1719.6 2197.1,-1783.1 2197.1,-1783.4 2238.6,-1809.4 "/>
<polygon class="st1" points="1951.7,-1763.5 2123.4,-1862.6 2134.4,-1869 2132.6,-1820 2132.4,-1819.9 2078.6,-1788.8 
	2086.2,-1773.5 2090.8,-1764.1 2091.9,-1761.9 2133.4,-1747.2 2114.6,-1723.9 2113.3,-1722.4 2110.4,-1718.7 2104.4,-1720.2 
	2089,-1723.9 2084.5,-1708.7 2082.8,-1702.8 2078.2,-1702 2076.2,-1701.8 2047.2,-1697.2 2055.8,-1741.1 2054.5,-1743.1 
	2048.7,-1751.8 2039.2,-1766.1 1984.2,-1734.3 1984,-1734.2 1940.7,-1757.2 "/>
<polygon class="st1" points="2123.4,-1531.6 1951.8,-1630.7 1940.7,-1637.1 1984.1,-1660 1984.3,-1659.9 2038.1,-1628.9 
	2047.6,-1643.1 2053.4,-1651.8 2054.7,-1653.8 2046.8,-1697.2 2076.3,-1692.5 2078.3,-1692.2 2082.9,-1691.4 2084.7,-1685.5 
	2089.1,-1670.3 2104.5,-1674 2110.5,-1675.5 2113.5,-1671.9 2114.7,-1670.3 2133.2,-1647.5 2090.8,-1633 2089.7,-1630.8 
	2085.1,-1621.4 2077.5,-1606.1 2132.4,-1574.4 2132.7,-1574.2 2134.4,-1525.3 "/>
<polygon class="st1" points="2759.7,-1797.1 2759.7,-1598.9 2759.7,-1586.1 2718.2,-1612.2 2718.2,-1612.4 2718.2,-1674.5 
	2701.1,-1675.7 2690.7,-1676.4 2688.3,-1676.5 2654.7,-1647.9 2644,-1675.9 2643.3,-1677.7 2641.6,-1682.1 2645.8,-1686.6 
	2656.8,-1698 2645.9,-1709.5 2641.6,-1713.9 2643.3,-1718.3 2644,-1720.2 2654.5,-1747.6 2688.3,-1718.1 2690.7,-1718.3 
	2701.1,-1719 2718.2,-1720 2718.2,-1783.5 2718.2,-1783.8 2759.7,-1809.8 "/>
<polygon class="st1" points="2472.8,-1763.9 2644.5,-1863 2655.5,-1869.4 2653.7,-1820.4 2653.5,-1820.3 2599.7,-1789.2 
	2607.3,-1773.9 2611.9,-1764.5 2613,-1762.3 2654.5,-1747.6 2635.7,-1724.3 2634.4,-1722.8 2631.5,-1719.1 2625.5,-1720.6 
	2610.1,-1724.4 2605.6,-1709.2 2603.9,-1703.2 2599.2,-1702.4 2597.3,-1702.2 2568.3,-1697.6 2576.9,-1741.5 2575.6,-1743.6 
	2569.8,-1752.3 2560.3,-1766.5 2505.3,-1734.8 2505.1,-1734.6 2461.8,-1757.6 "/>
<polygon class="st1" points="2644.5,-1532 2472.9,-1631.1 2461.8,-1637.5 2505.2,-1660.4 2505.4,-1660.3 2559.1,-1629.3 
	2568.7,-1643.5 2574.5,-1652.2 2575.8,-1654.2 2567.8,-1697.6 2597.4,-1692.9 2599.4,-1692.6 2604,-1691.8 2605.8,-1685.9 
	2610.2,-1670.7 2625.6,-1674.4 2631.6,-1675.9 2634.6,-1672.3 2635.8,-1670.7 2654.2,-1647.9 2611.9,-1633.4 2610.8,-1631.2 
	2606.2,-1621.8 2598.5,-1606.5 2653.5,-1574.8 2653.7,-1574.7 2655.5,-1525.7 "/>
<radialGradient id="SVGID_00000091699893329113390140000002219288621298991551_" cx="1044.3977" cy="1167.219" r="317.3708" gradientTransform="matrix(-0.5 -0.866 -0.866 0.5 3314.8923 -220.1556)" gradientUnits="userSpaceOnUse">
	<stop  offset="0" style="stop-color:#99CC00"/>
	<stop  offset="1" style="stop-color:#99CC00"/>
</radialGradient>
<path style="fill:url(#SVGID_00000091699893329113390140000002219288621298991551_);" d="M1660.5-638.3l9.3,3.3l-34.2,42.1
	l26.8,127.1l176.2,23.1l68-164.1l-96.6-86.8L1756-685l1.9-9.7l54.4-9.3c3.6-0.6,7.2,0.4,10,2.6l107.5,87.8c4.1,3.4,5.7,9,3.8,14
	l-68.5,186.5c-2.1,5.7-7.9,9.1-13.9,8l-195.9-33.9c-5.3-0.9-9.4-5.1-10.2-10.3l-22.3-137c-0.6-3.6,0.4-7.2,2.7-10L1660.5-638.3z
	 M1720.4-679.4l-16.8,2.7l-10.8,13.2l-9.5-2.3l15.7-18.8l24.1-4.1L1720.4-679.4z"/>
<radialGradient id="SVGID_00000041260020711743759560000002214611738183114942_" cx="1331.3876" cy="-1697.4" r="297.7316" gradientTransform="matrix(-0.866 0.5 -0.5 -0.866 2080.4304 -2940.686)" gradientUnits="userSpaceOnUse">
	<stop  offset="0" style="stop-color:#99CC00"/>
	<stop  offset="1" style="stop-color:#99CC00"/>
</radialGradient>
<path style="fill:url(#SVGID_00000041260020711743759560000002214611738183114942_);" d="M1758.3-658.5l-1.8-9.7l53.5,8.5l96.7-86.8
	l-68.1-164.1l-176.1,23.2l-26.9,127l34.5,42.5l-9.3,3.2l-35.3-42.4c-2.3-2.8-3.3-6.4-2.7-10l22.3-137c0.9-5.3,5-9.4,10.2-10.3
	l195.8-33.9c6-1,11.8,2.3,13.9,8l68.6,186.6c1.8,5,0.3,10.6-3.8,14l-107.4,87.8c-2.8,2.3-6.5,3.3-10.1,2.6L1758.3-658.5z
	 M1692.8-689.9l10.8,13.2l16.8,2.7l2.7,9.4l-24.1-4.2l-15.6-18.8L1692.8-689.9z"/>
<radialGradient id="SVGID_00000155865127393315144940000000908561029577599878_" cx="2653.967" cy="878.0483" r="317.3708" gradientTransform="matrix(1 0 0 -1 -286.2998 -57.248)" gradientUnits="userSpaceOnUse">
	<stop  offset="0" style="stop-color:#99CC00"/>
	<stop  offset="1" style="stop-color:#99CC00"/>
</radialGradient>
<path style="fill:url(#SVGID_00000155865127393315144940000000908561029577599878_);" d="M2512.6-991.7l-7.5,6.4l-19.3-50.6
	l-123.5-40.3l-108.1,141l108.1,140.9l123.5-40.2l19.6-51.2l7.5,6.5l-19.1,51.8c-1.3,3.4-3.9,6.1-7.3,7.4l-129.8,49.2
	c-5,1.9-10.6,0.4-14.1-3.7l-127.3-152.6c-3.9-4.6-3.9-11.4,0-16l127.3-152.7c3.4-4.1,9.1-5.6,14.1-3.7l129.8,49.1
	c3.4,1.3,6.1,4,7.3,7.4L2512.6-991.7z M2518.2-919.3l6.1-15.9l-6.1-15.9l6.8-7l8.4,23l-8.4,22.9L2518.2-919.3z"/>
<radialGradient id="SVGID_00000042707978734424910410000007031248392371761333_" cx="857.9716" cy="327.1745" r="317.3708" gradientTransform="matrix(-0.5 -0.866 -0.866 0.5 3314.8923 -220.1556)" gradientUnits="userSpaceOnUse">
	<stop  offset="0" style="stop-color:#99CC00"/>
	<stop  offset="1" style="stop-color:#99CC00"/>
</radialGradient>
<path style="fill:url(#SVGID_00000042707978734424910410000007031248392371761333_);" d="M2481.2-896.9l9.3,3.3l-34.2,42.1
	l26.8,127.1l176.2,23.1l68-164.1l-96.6-86.8l-54.1,8.6l1.9-9.7l54.4-9.3c3.6-0.6,7.2,0.4,10,2.6l107.5,87.8c4.1,3.4,5.7,9,3.8,14
	l-68.5,186.5c-2.1,5.7-7.9,9.1-13.9,8L2476-697.5c-5.3-0.9-9.4-5.1-10.2-10.3l-22.3-137c-0.6-3.6,0.4-7.2,2.7-10L2481.2-896.9z
	 M2541.1-937.9l-16.8,2.7l-10.8,13.2l-9.5-2.3l15.7-18.8l24.1-4.1L2541.1-937.9z"/>
<radialGradient id="SVGID_00000142863092046835450000000002175216349464856495_" cx="491.3432" cy="-1883.8264" r="297.7316" gradientTransform="matrix(-0.866 0.5 -0.5 -0.866 2080.4304 -2940.686)" gradientUnits="userSpaceOnUse">
	<stop  offset="0" style="stop-color:#99CC00"/>
	<stop  offset="1" style="stop-color:#99CC00"/>
</radialGradient>
<path style="fill:url(#SVGID_00000142863092046835450000000002175216349464856495_);" d="M2579-917.1l-1.8-9.7l53.5,8.5l96.7-86.8
	l-68.1-164.1l-176.1,23.2l-26.9,127l34.5,42.5l-9.3,3.2l-35.3-42.4c-2.3-2.8-3.3-6.4-2.7-10l22.3-137c0.9-5.3,5-9.4,10.2-10.3
	l195.8-33.9c6-1,11.8,2.3,13.9,8l68.6,186.6c1.8,5,0.3,10.6-3.8,14l-107.4,87.8c-2.8,2.3-6.5,3.3-10.1,2.6L2579-917.1z
	 M2513.5-948.5l10.8,13.2l16.8,2.7l2.7,9.4l-24.1-4.2l-15.6-18.8L2513.5-948.5z"/>
<radialGradient id="SVGID_00000053508747769654000700000003194599724222295957_" cx="2653.967" cy="878.0483" r="317.3708" gradientTransform="matrix(1 0 0 -1 -286.2998 -57.248)" gradientUnits="userSpaceOnUse">
	<stop  offset="0" style="stop-color:#99CC00"/>
	<stop  offset="1" style="stop-color:#99CC00"/>
</radialGradient>
<path style="fill:url(#SVGID_00000053508747769654000700000003194599724222295957_);" d="M2512.6-991.7l-7.5,6.4l-19.3-50.6
	l-123.5-40.3l-108.1,141l108.1,140.9l123.5-40.2l19.6-51.2l7.5,6.5l-19.1,51.8c-1.3,3.4-3.9,6.1-7.3,7.4l-129.8,49.2
	c-5,1.9-10.6,0.4-14.1-3.7l-127.3-152.6c-3.9-4.6-3.9-11.4,0-16l127.3-152.7c3.4-4.1,9.1-5.6,14.1-3.7l129.8,49.1
	c3.4,1.3,6.1,4,7.3,7.4L2512.6-991.7z M2518.2-919.3l6.1-15.9l-6.1-15.9l6.8-7l8.4,23l-8.4,22.9L2518.2-919.3z"/>
<radialGradient id="SVGID_00000087413039905765886720000011204202948055104928_" cx="3314.6091" cy="1249.7567" r="317.3708" gradientTransform="matrix(1 0 0 -1 -286.2998 -57.248)" gradientUnits="userSpaceOnUse">
	<stop  offset="0" style="stop-color:#99CC00"/>
	<stop  offset="1" style="stop-color:#99CC00"/>
</radialGradient>
<path style="fill:url(#SVGID_00000087413039905765886720000011204202948055104928_);" d="M3173.3-1363.4l-7.5,6.4l-19.3-50.6
	l-123.5-40.3l-108.1,141l108.1,140.9l123.5-40.2l19.6-51.2l7.5,6.5l-19.1,51.8c-1.3,3.4-3.9,6.1-7.3,7.4l-129.8,49.2
	c-5,1.9-10.6,0.4-14.1-3.7l-127.3-152.6c-3.9-4.6-3.9-11.4,0-16l127.3-152.7c3.4-4.1,9.1-5.6,14.1-3.7l129.8,49.1
	c3.4,1.3,6.1,4,7.3,7.4L3173.3-1363.4z M3178.9-1291l6.1-15.9l-6.1-15.9l6.8-7l8.4,23l-8.4,22.9L3178.9-1291z"/>
<radialGradient id="SVGID_00000073710432762213912950000014744093088681058741_" cx="3314.6091" cy="1249.7567" r="317.3708" gradientTransform="matrix(0.9753 0.221 0.221 -0.9753 -469.1448 -901.7211)" gradientUnits="userSpaceOnUse">
	<stop  offset="0" style="stop-color:#99CC00"/>
	<stop  offset="1" style="stop-color:#99CC00"/>
</radialGradient>
<path style="fill:url(#SVGID_00000073710432762213912950000014744093088681058741_);" d="M3193.5-1411.2l-8.7,4.6l-7.7-53.6
	l-111.5-66.6L2929-1413.2l74.3,161.3l129.3-11.9l30.4-45.6l5.9,8l-30.1,46.3c-2,3-5.2,5.1-8.8,5.6l-137.4,19.3
	c-5.3,0.7-10.5-1.9-12.9-6.7l-90.4-176.9c-2.8-5.4-1.3-12,3.5-15.6l157.9-120.8c4.2-3.2,10.1-3.4,14.5-0.5l115.7,76.6
	c3,2,5,5.2,5.5,8.8L3193.5-1411.2z M3183-1339.3l9.5-14.2l-2.4-16.9l8.1-5.3l3.2,24.3L3188-1331L3183-1339.3z"/>
<radialGradient id="SVGID_00000088126790378874253070000010540251469218145688_" cx="3314.6091" cy="1249.7567" r="317.3708" gradientTransform="matrix(0.9023 0.431 0.431 -0.9023 -460.8719 -1765.7228)" gradientUnits="userSpaceOnUse">
	<stop  offset="0" style="stop-color:#99CC00"/>
	<stop  offset="1" style="stop-color:#99CC00"/>
</radialGradient>
<path style="fill:url(#SVGID_00000088126790378874253070000010540251469218145688_);" d="M3223.8-1453.3l-9.5,2.5l4.4-54l-94-89.6
	l-158.3,80.7l36.8,173.7l128.7,16.9l39.7-37.7l4,9.1l-39.5,38.5c-2.6,2.5-6.2,3.8-9.8,3.5l-138.3-11.6c-5.3-0.4-9.8-4.2-11.1-9.4
	l-49.1-192.5c-1.5-5.9,1.4-11.9,6.9-14.5l180.7-83c4.9-2.2,10.6-1.1,14.3,2.7l95.9,100.3c2.5,2.6,3.8,6.2,3.4,9.8L3223.8-1453.3z
	 M3197.7-1385.5l12.4-11.7l1.4-17l9.1-3.4l-2.3,24.4l-17.5,17L3197.7-1385.5z"/>
<radialGradient id="SVGID_00000016045858445401453860000015302872981202036901_" cx="3314.6091" cy="1249.7567" r="317.3708" gradientTransform="matrix(0.7848 0.6197 0.6197 -0.7848 -261.8901 -2606.5398)" gradientUnits="userSpaceOnUse">
	<stop  offset="0" style="stop-color:#99CC00"/>
	<stop  offset="1" style="stop-color:#99CC00"/>
</radialGradient>
<path style="fill:url(#SVGID_00000016045858445401453860000015302872981202036901_);" d="M3262.7-1487.6l-9.9,0.3l16.2-51.7
	l-71.9-108.2l-172.2,43.7l-2.5,177.6l121.8,45l47.1-28l1.9,9.7l-47.1,28.8c-3.1,1.9-6.9,2.3-10.3,1.3l-132.3-41.8
	c-5.1-1.6-8.6-6.3-8.7-11.6l-5.3-198.6c-0.2-6,4-11.3,9.9-12.6l194.6-41c5.2-1.1,10.6,1.2,13.3,5.8l71.4,119
	c1.9,3.1,2.3,6.9,1.2,10.3L3262.7-1487.6z M3222.2-1427.3l14.6-8.7l5.1-16.3l9.6-1.3l-7.6,23.3l-20.8,12.7L3222.2-1427.3z"/>
<radialGradient id="SVGID_00000173876867483487642330000001323817470660445348_" cx="3314.6091" cy="1249.7567" r="317.3708" gradientTransform="matrix(0.6285 0.7778 0.7778 -0.6285 117.9638 -3382.6057)" gradientUnits="userSpaceOnUse">
	<stop  offset="0" style="stop-color:#99CC00"/>
	<stop  offset="1" style="stop-color:#99CC00"/>
</radialGradient>
<path style="fill:url(#SVGID_00000173876867483487642330000001323817470660445348_);" d="M3308.2-1512.5l-9.7-1.8l27.2-46.9
	l-46.2-121.4l-177.6,4.6l-41.7,172.6l108.9,70.8l52.1-16.9l-0.3,9.9l-52.3,17.7c-3.4,1.2-7.2,0.8-10.3-1.1l-119.8-70
	c-4.6-2.7-7-8-6-13.2l38.7-194.9c1.2-5.9,6.4-10.2,12.5-10.1l198.8,3c5.3,0.1,10,3.5,11.7,8.6l43.3,131.8c1.1,3.4,0.7,7.2-1.1,10.3
	L3308.2-1512.5z M3255.4-1462.7l16.2-5.3l8.6-14.7l9.7,0.8l-12.6,21l-23.1,7.8L3255.4-1462.7z"/>
<radialGradient id="SVGID_00000068656403379915415970000013677763400339765915_" cx="3314.6091" cy="1249.7567" r="317.3708" gradientTransform="matrix(0.4411 0.8975 0.8975 -0.4411 659.9113 -4055.5547)" gradientUnits="userSpaceOnUse">
	<stop  offset="0" style="stop-color:#99CC00"/>
	<stop  offset="1" style="stop-color:#99CC00"/>
</radialGradient>
<path style="fill:url(#SVGID_00000068656403379915415970000013677763400339765915_);" d="M3358.1-1526.8l-9-3.9l36.9-39.7
	l-18.3-128.6l-174.3-34.8l-78.8,159.2l90.6,93.1l54.5-5l-2.5,9.6l-54.9,5.7c-3.6,0.4-7.2-0.8-9.8-3.3l-101.4-94.8
	c-3.9-3.6-5.1-9.4-2.9-14.2l80.8-181.5c2.5-5.5,8.5-8.5,14.4-7.1l193.2,46.9c5.2,1.3,9,5.7,9.5,11l13.1,138.1
	c0.3,3.6-0.9,7.2-3.4,9.8L3358.1-1526.8z M3295.6-1489.8l17-1.6l11.6-12.5l9.3,3l-16.9,17.7l-24.3,2.5L3295.6-1489.8z"/>
<radialGradient id="SVGID_00000172433285549020685820000012421178645205010334_" cx="3314.6091" cy="1249.7567" r="317.3708" gradientTransform="matrix(0.2318 0.9728 0.9728 -0.2318 1337.1604 -4592.1187)" gradientUnits="userSpaceOnUse">
	<stop  offset="0" style="stop-color:#99CC00"/>
	<stop  offset="1" style="stop-color:#99CC00"/>
</radialGradient>
<path style="fill:url(#SVGID_00000172433285549020685820000012421178645205010334_);" d="M3409.9-1529.7l-7.9-5.8l44.7-30.6
	l10.6-129.5L3295-1768l-112,137.8l67.7,110.8l54.3,7.2l-4.6,8.8l-54.8-6.6c-3.6-0.4-6.8-2.4-8.9-5.4l-77.9-114.8
	c-3-4.4-2.9-10.2,0.3-14.5l118.9-159.2c3.6-4.8,10.2-6.4,15.6-3.7l178.1,88.4c4.8,2.4,7.5,7.5,6.9,12.8l-17.7,137.6
	c-0.5,3.6-2.5,6.8-5.5,8.8L3409.9-1529.7z M3340.7-1507.4l16.9,2.2l14.1-9.6l8.4,4.9l-20.4,13.5l-24.2-2.9L3340.7-1507.4z"/>
<radialGradient id="SVGID_00000150079955151483510620000009322098511857747111_" cx="3314.6091" cy="1249.7567" r="317.3708" gradientTransform="matrix(1.117492e-02 0.9999 0.9999 -1.117492e-02 2116.2307 -4965.772)" gradientUnits="userSpaceOnUse">
	<stop  offset="0" style="stop-color:#99CC00"/>
	<stop  offset="1" style="stop-color:#99CC00"/>
</radialGradient>
<path style="fill:url(#SVGID_00000150079955151483510620000009322098511857747111_);" d="M3461-1521l-6.5-7.4l50.4-19.9l39-123.9
	l-142.2-106.5l-139.7,109.7l41.6,123l51.4,19l-6.4,7.5l-52-18.5c-3.4-1.2-6.1-3.9-7.5-7.2l-50.6-129.2c-1.9-5-0.5-10.6,3.5-14.1
	l151.1-129c4.6-3.9,11.3-4,16-0.2l154.2,125.6c4.1,3.4,5.7,9,3.9,14l-47.7,130.3c-1.2,3.4-3.9,6.1-7.3,7.4L3461-1521z
	 M3388.7-1514.6l16,5.9l15.9-6.3l7.1,6.7l-22.9,8.7l-23-8.2L3388.7-1514.6z"/>
<radialGradient id="SVGID_00000013900789820805822900000008866963850319101850_" cx="3314.6091" cy="1249.7567" r="317.3708" gradientTransform="matrix(-0.2101 0.9777 0.9777 0.2101 2958.6079 -5158.0425)" gradientUnits="userSpaceOnUse">
	<stop  offset="0" style="stop-color:#99CC00"/>
	<stop  offset="1" style="stop-color:#99CC00"/>
</radialGradient>
<path style="fill:url(#SVGID_00000013900789820805822900000008866963850319101850_);" d="M3509-1501.3l-4.7-8.7l53.5-8.3l65.4-112.2
	L3508-1765.8l-160.5,76.1l13.4,129.2l45.9,29.9l-7.9,6l-46.6-29.5c-3.1-1.9-5.1-5.1-5.7-8.7l-20.8-137.2c-0.8-5.3,1.8-10.5,6.6-13
	l175.9-92.4c5.4-2.8,12-1.4,15.7,3.4l122.6,156.5c3.3,4.2,3.6,10,0.7,14.5l-75.3,116.6c-2,3-5.2,5.1-8.8,5.6L3509-1501.3z
	 M3437-1511l14.3,9.3l16.8-2.6l5.4,8.1l-24.2,3.4l-20.6-13.1L3437-1511z"/>
<radialGradient id="SVGID_00000072981480100387666760000017193770733731274906_" cx="3314.6091" cy="1249.7567" r="317.3708" gradientTransform="matrix(-0.4209 0.9071 0.9071 0.4209 3822.6479 -5159.4253)" gradientUnits="userSpaceOnUse">
	<stop  offset="0" style="stop-color:#99CC00"/>
	<stop  offset="1" style="stop-color:#99CC00"/>
</radialGradient>
<path style="fill:url(#SVGID_00000072981480100387666760000017193770733731274906_);" d="M3551.4-1471.4l-2.6-9.5l54,3.7l88.6-95
	l-82.4-157.4l-173.3,38.7l-15.5,128.9l38.2,39.3l-9,4.1l-38.9-39.1c-2.6-2.6-3.9-6.1-3.6-9.7l10-138.4c0.4-5.3,4.1-9.8,9.3-11.2
	l192-51.2c5.8-1.6,12,1.3,14.5,6.7l85,179.8c2.3,4.8,1.3,10.6-2.6,14.3l-99.2,97c-2.6,2.5-6.2,3.8-9.8,3.5L3551.4-1471.4z
	 M3483.4-1496.9l11.9,12.2l17,1.2l3.5,9.1l-24.4-2l-17.2-17.3L3483.4-1496.9z"/>
<radialGradient id="SVGID_00000008107817802442405970000012818640201876163483_" cx="3314.6091" cy="1249.7567" r="317.3708" gradientTransform="matrix(-0.6109 0.7917 0.7917 0.6109 4665.6362 -4969.8516)" gradientUnits="userSpaceOnUse">
	<stop  offset="0" style="stop-color:#99CC00"/>
	<stop  offset="1" style="stop-color:#99CC00"/>
</radialGradient>
<path style="fill:url(#SVGID_00000008107817802442405970000012818640201876163483_);" d="M3586.2-1433l-0.5-9.8l51.9,15.6
	l107.4-73.1l-45.6-171.7l-177.6-0.5l-43.6,122.3l28.5,46.7l-9.7,2l-29.3-46.7c-1.9-3.1-2.4-6.8-1.4-10.3l40.4-132.8
	c1.6-5.1,6.2-8.7,11.5-8.9l198.6-7.6c6-0.2,11.4,3.9,12.7,9.8l43.2,194.1c1.2,5.2-1.1,10.6-5.7,13.4l-118.2,72.7
	c-3.1,1.9-6.9,2.4-10.3,1.3L3586.2-1433z M3525.4-1472.8l8.9,14.5l16.3,4.9l1.4,9.6l-23.4-7.4l-13-20.7L3525.4-1472.8z"/>
<radialGradient id="SVGID_00000047035162116271857850000008179141119910124963_" cx="3314.6091" cy="1249.7567" r="317.3708" gradientTransform="matrix(-0.7708 0.6371 0.6371 0.7708 5445.8984 -4598.6938)" gradientUnits="userSpaceOnUse">
	<stop  offset="0" style="stop-color:#99CC00"/>
	<stop  offset="1" style="stop-color:#99CC00"/>
</radialGradient>
<path style="fill:url(#SVGID_00000047035162116271857850000008179141119910124963_);" d="M3611.6-1387.8l1.7-9.7l47.2,26.7
	l120.9-47.6l-6.5-177.6l-173.1-39.7l-69.5,109.7l17.5,51.9l-9.9-0.2l-18.3-52.1c-1.2-3.4-0.9-7.2,0.9-10.3l68.7-120.6
	c2.6-4.6,7.9-7.1,13.2-6.1l195.3,36.5c5.9,1.1,10.2,6.3,10.2,12.4l-0.8,198.8c0,5.3-3.4,10.1-8.5,11.8l-131.3,44.8
	c-3.4,1.2-7.2,0.8-10.3-1L3611.6-1387.8z M3561.2-1440l5.5,16.2l14.8,8.4l-0.7,9.7l-21.2-12.3l-8.1-23L3561.2-1440z"/>
<radialGradient id="SVGID_00000048483049571423376320000015549946098025398688_" cx="3314.6091" cy="1249.7567" r="317.3708" gradientTransform="matrix(-0.8925 0.4511 0.4511 0.8925 6124.8618 -4064.3005)" gradientUnits="userSpaceOnUse">
	<stop  offset="0" style="stop-color:#99CC00"/>
	<stop  offset="1" style="stop-color:#99CC00"/>
</radialGradient>
<path style="fill:url(#SVGID_00000048483049571423376320000015549946098025398688_);" d="M3626.4-1338l3.8-9.1l40.1,36.4l128.4-19.7
	l32.9-174.6l-160-77l-92.1,91.6l5.6,54.5l-9.6-2.4l-6.3-54.8c-0.4-3.6,0.8-7.2,3.2-9.9l93.6-102.4c3.6-3.9,9.3-5.2,14.2-3
	l182.4,78.8c5.6,2.4,8.6,8.4,7.2,14.3l-44.7,193.7c-1.2,5.2-5.6,9.1-10.9,9.6l-138,14.7c-3.6,0.4-7.2-0.8-9.9-3.3L3626.4-1338z
	 M3588.8-1400.2l1.8,17l12.6,11.5l-2.9,9.3l-17.9-16.7l-2.8-24.2L3588.8-1400.2z"/>
<radialGradient id="SVGID_00000011032605870477699440000012753909324383207092_" cx="3314.6091" cy="1249.7567" r="317.3708" gradientTransform="matrix(-0.9701 0.2427 0.2427 0.9701 6668.96 -3393.0896)" gradientUnits="userSpaceOnUse">
	<stop  offset="0" style="stop-color:#99CC00"/>
	<stop  offset="1" style="stop-color:#99CC00"/>
</radialGradient>
<path style="fill:url(#SVGID_00000011032605870477699440000012753909324383207092_);" d="M3629.8-1286.3l5.7-8l31.1,44.4l129.6,9.2
	l70.6-163.1l-139.1-110.5l-110,69l-6.6,54.4l-8.8-4.5l6-54.8c0.4-3.6,2.3-6.9,5.3-8.9l114-79.2c4.4-3,10.2-3,14.5,0.2l160.5,117.1
	c4.9,3.6,6.5,10.1,3.9,15.6l-86.4,179.1c-2.3,4.8-7.4,7.6-12.7,7l-137.8-16.2c-3.6-0.4-6.8-2.4-8.9-5.4L3629.8-1286.3z
	 M3606.9-1355.2l-2,16.9l9.8,14l-4.9,8.4l-13.8-20.2l2.6-24.3L3606.9-1355.2z"/>
<radialGradient id="SVGID_00000059995204036714725450000002702941456633000089_" cx="3314.6091" cy="1249.7567" r="317.3708" gradientTransform="matrix(-0.9998 2.234845e-02 2.234845e-02 0.9998 7051.2959 -2618.2437)" gradientUnits="userSpaceOnUse">
	<stop  offset="0" style="stop-color:#99CC00"/>
	<stop  offset="1" style="stop-color:#99CC00"/>
</radialGradient>
<path style="fill:url(#SVGID_00000059995204036714725450000002702941456633000089_);" d="M3621.8-1235.1l7.4-6.5l20.5,50.2
	l124.3,37.6l104.9-143.4l-111.2-138.5l-122.5,43l-18.4,51.6l-7.6-6.3l17.9-52.2c1.2-3.4,3.8-6.2,7.1-7.5l128.7-52.1
	c4.9-2,10.6-0.6,14.1,3.4l130.7,149.7c4,4.6,4.1,11.3,0.4,16l-123.9,155.6c-3.3,4.2-8.9,5.8-14,4l-130.8-46.2
	c-3.4-1.2-6.1-3.8-7.5-7.2L3621.8-1235.1z M3614.6-1307.3l-5.7,16.1l6.4,15.8l-6.6,7.2l-9-22.8l7.9-23.1L3614.6-1307.3z"/>
<radialGradient id="SVGID_00000016057398248502847080000007040807654007267468_" cx="3314.6091" cy="1249.7567" r="317.3708" gradientTransform="matrix(-0.98 -0.1991 -0.1991 0.98 7252.9683 -1778.0676)" gradientUnits="userSpaceOnUse">
	<stop  offset="0" style="stop-color:#99CC00"/>
	<stop  offset="1" style="stop-color:#99CC00"/>
</radialGradient>
<path style="fill:url(#SVGID_00000016057398248502847080000007040807654007267468_);" d="M3602.6-1186.9l8.6-4.8l8.9,53.4l113,64.1
	l134-116.7l-77.9-159.6l-129,14.8l-29.4,46.2l-6-7.8l29-46.9c1.9-3.1,5.1-5.2,8.6-5.8l137-22.4c5.3-0.9,10.5,1.7,13,6.4l94.4,174.9
	c2.9,5.3,1.5,11.9-3.2,15.7l-155.2,124.3c-4.2,3.3-10,3.7-14.5,0.8l-117.4-74c-3.1-1.9-5.1-5.1-5.7-8.7L3602.6-1186.9z
	 M3611.5-1258.9l-9.1,14.4l2.8,16.8l-8,5.5l-3.7-24.2l12.8-20.8L3611.5-1258.9z"/>
<radialGradient id="SVGID_00000181053482516121827350000009182882424262298047_" cx="3314.6091" cy="1249.7567" r="317.3708" gradientTransform="matrix(-0.9118 -0.4107 -0.4107 0.9118 7264.0063 -914.0969)" gradientUnits="userSpaceOnUse">
	<stop  offset="0" style="stop-color:#99CC00"/>
	<stop  offset="1" style="stop-color:#99CC00"/>
</radialGradient>
<path style="fill:url(#SVGID_00000181053482516121827350000009182882424262298047_);" d="M3573.2-1144.1l9.5-2.7l-3.1,54.1l96,87.5
	l156.5-84.2l-40.7-172.9l-129.1-14l-38.8,38.6l-4.2-9l38.7-39.3c2.5-2.6,6.1-3.9,9.7-3.7l138.5,8.5c5.3,0.3,9.9,4,11.3,9.1
	l53.4,191.4c1.6,5.8-1.1,12-6.6,14.6l-178.8,87c-4.8,2.3-10.6,1.4-14.3-2.4l-98.1-98.1c-2.6-2.6-3.9-6.1-3.6-9.7L3573.2-1144.1z
	 M3597.9-1212.4l-12.1,12l-1,17l-9,3.6l1.7-24.4l17.1-17.4L3597.9-1212.4z"/>
<radialGradient id="SVGID_00000041276220319343044370000015235009698680778673_" cx="3314.6091" cy="1249.7567" r="317.3708" gradientTransform="matrix(-0.7985 -0.602 -0.602 0.7985 7083.8652 -69.0428)" gradientUnits="userSpaceOnUse">
	<stop  offset="0" style="stop-color:#99CC00"/>
	<stop  offset="1" style="stop-color:#99CC00"/>
</radialGradient>
<path style="fill:url(#SVGID_00000041276220319343044370000015235009698680778673_);" d="M3535.1-1108.9l9.8-0.6l-15,52.1
	l74.3,106.5l171.2-47.5L3774-1176l-122.8-42.2l-46.4,29.1l-2.1-9.7l46.4-29.8c3-2,6.8-2.5,10.3-1.5l133.2,38.9
	c5.1,1.5,8.7,6.1,9,11.4l9.8,198.5c0.3,6-3.8,11.4-9.7,12.8l-193.6,45.3c-5.2,1.2-10.6-1-13.4-5.5l-74-117.4
	c-1.9-3.1-2.4-6.8-1.4-10.3L3535.1-1108.9z M3574.3-1170.1l-14.4,9.1l-4.7,16.4l-9.6,1.5l7.1-23.4l20.5-13.2L3574.3-1170.1z"/>
<radialGradient id="SVGID_00000116200101322657538630000013283870650100452992_" cx="3314.6091" cy="1249.7567" r="317.3708" gradientTransform="matrix(-0.6457 -0.7636 -0.7636 0.6457 6721.4502 715.3184)" gradientUnits="userSpaceOnUse">
	<stop  offset="0" style="stop-color:#99CC00"/>
	<stop  offset="1" style="stop-color:#99CC00"/>
</radialGradient>
<path style="fill:url(#SVGID_00000116200101322657538630000013283870650100452992_);" d="M3490.2-1083l9.7,1.6l-26.2,47.4
	l48.9,120.3l177.5-8.5l37.8-173.5l-110.4-68.3l-51.7,18.1l0.1-9.9l51.9-18.8c3.4-1.2,7.2-0.9,10.3,0.8l121.4,67.3
	c4.7,2.6,7.2,7.9,6.3,13.1l-34.3,195.7c-1,6-6.2,10.3-12.2,10.4l-198.8,1.4c-5.3,0-10.1-3.3-11.9-8.3l-46.3-130.8
	c-1.2-3.4-0.9-7.2,0.9-10.4L3490.2-1083z M3541.9-1134l-16.1,5.6l-8.2,14.9l-9.7-0.6l12.1-21.3l22.9-8.3L3541.9-1134z"/>
<radialGradient id="SVGID_00000080175414533286429720000012251977222911392390_" cx="3314.6091" cy="1249.7567" r="317.3708" gradientTransform="matrix(-0.461 -0.8874 -0.8874 0.461 6194.6772 1400.2108)" gradientUnits="userSpaceOnUse">
	<stop  offset="0" style="stop-color:#99CC00"/>
	<stop  offset="1" style="stop-color:#99CC00"/>
</radialGradient>
<path style="fill:url(#SVGID_00000080175414533286429720000012251977222911392390_);" d="M3440.7-1067.6l9.1,3.7l-36,40.5
	l21.1,128.2l175,30.9l75.2-160.9l-92.6-91l-54.4,6.2l2.3-9.6l54.7-6.9c3.6-0.5,7.2,0.7,9.9,3.1l103.5,92.5c4,3.6,5.3,9.2,3.2,14.2
	L3635-833.5c-2.3,5.6-8.3,8.7-14.2,7.4l-194.2-42.5c-5.2-1.1-9.1-5.5-9.8-10.8l-16.2-137.8c-0.4-3.6,0.7-7.2,3.2-9.9L3440.7-1067.6z
	 M3502.4-1106l-16.9,1.9l-11.3,12.7l-9.3-2.8l16.5-18.1l24.2-3.1L3502.4-1106z"/>
<radialGradient id="SVGID_00000138534243024595050260000006554919054004615061_" cx="3314.6091" cy="1249.7567" r="317.3708" gradientTransform="matrix(-0.2535 -0.9673 -0.9673 0.2535 5529.5889 1951.7761)" gradientUnits="userSpaceOnUse">
	<stop  offset="0" style="stop-color:#99CC00"/>
	<stop  offset="1" style="stop-color:#99CC00"/>
</radialGradient>
<path style="fill:url(#SVGID_00000138534243024595050260000006554919054004615061_);" d="M3389-1063.6l8.1,5.7l-44,31.5l-7.7,129.7
	l163.8,68.8L3618-968.2l-70.2-109.2l-54.4-6l4.4-8.9l54.9,5.4c3.6,0.4,6.9,2.2,9,5.2l80.5,113.1c3.1,4.3,3.1,10.2,0,14.5
	l-115.3,161.8c-3.5,4.9-10,6.6-15.5,4.1l-180-84.4c-4.8-2.3-7.7-7.3-7.1-12.7l14.6-138c0.4-3.6,2.3-6.9,5.3-8.9L3389-1063.6z
	 M3457.6-1087.4l-16.9-1.8l-13.9,9.9l-8.5-4.8l20.1-14l24.3,2.4L3457.6-1087.4z"/>
<radialGradient id="SVGID_00000149358942329609376140000001971055589843300769_" cx="3314.6091" cy="1249.7567" r="317.3708" gradientTransform="matrix(-3.351919e-02 -0.9994 -0.9994 3.351919e-02 4759.0635 2342.7471)" gradientUnits="userSpaceOnUse">
	<stop  offset="0" style="stop-color:#99CC00"/>
	<stop  offset="1" style="stop-color:#99CC00"/>
</radialGradient>
<path style="fill:url(#SVGID_00000149358942329609376140000001971055589843300769_);" d="M3337.6-1071.1l6.6,7.3l-49.9,21
	L3258.2-918l144.6,103.3L3540-927.5l-44.3-122.1l-51.8-17.8l6.2-7.7l52.4,17.4c3.4,1.1,6.2,3.7,7.6,7.1l53.5,128.1
	c2.1,4.9,0.8,10.6-3.2,14.2l-148.2,132.3c-4.5,4-11.3,4.3-16,0.5l-156.9-122.1c-4.2-3.3-5.9-8.9-4.2-13.9l44.8-131.3
	c1.2-3.4,3.8-6.2,7.1-7.6L3337.6-1071.1z M3409.8-1079.1l-16.1-5.5l-15.7,6.6l-7.2-6.5l22.7-9.2l23.2,7.7L3409.8-1079.1z"/>
<radialGradient id="SVGID_00000028322670837669603710000000263168445038336935_" cx="3314.6091" cy="1249.7567" r="317.3708" gradientTransform="matrix(0.1881 -0.9821 -0.9821 -0.1881 3921.1936 2553.7954)" gradientUnits="userSpaceOnUse">
	<stop  offset="0" style="stop-color:#99CC00"/>
	<stop  offset="1" style="stop-color:#99CC00"/>
</radialGradient>
<path style="fill:url(#SVGID_00000028322670837669603710000000263168445038336935_);" d="M3289.2-1089.8l4.8,8.6l-53.3,9.5
	L3177.9-958l118.2,132.7l158.7-79.7l-16.3-128.8l-46.6-28.8l7.8-6.1l47.2,28.5c3.1,1.9,5.2,5,5.9,8.6l23.9,136.7
	c0.9,5.3-1.6,10.5-6.3,13.1l-173.8,96.3c-5.3,2.9-11.9,1.7-15.8-3l-126.1-153.8c-3.4-4.1-3.8-9.9-1-14.5l72.7-118.2
	c1.9-3.1,5-5.2,8.6-5.8L3289.2-1089.8z M3361.4-1081.6l-14.5-9l-16.8,3l-5.6-8l24.2-4l20.9,12.6L3361.4-1081.6z"/>
<radialGradient id="SVGID_00000104684602330178983770000011140767299079589814_" cx="3314.6091" cy="1249.7567" r="317.3708" gradientTransform="matrix(0.4005 -0.9163 -0.9163 -0.4005 3057.4004 2574.4878)" gradientUnits="userSpaceOnUse">
	<stop  offset="0" style="stop-color:#99CC00"/>
	<stop  offset="1" style="stop-color:#99CC00"/>
</radialGradient>
<path style="fill:url(#SVGID_00000104684602330178983770000011140767299079589814_);" d="M3246.2-1118.6l2.8,9.4l-54.1-2.5l-86.4,97
	l85.9,155.5l172.4-42.6l12.6-129.2l-39-38.4l8.9-4.3l39.8,38.2c2.6,2.5,4,6,3.8,9.7l-6.9,138.6c-0.3,5.3-3.9,9.9-9,11.4l-190.8,55.5
	c-5.8,1.7-12-1-14.7-6.4l-89-177.8c-2.4-4.8-1.5-10.5,2.2-14.4l97-99.2c2.5-2.6,6.1-4,9.7-3.7L3246.2-1118.6z M3314.7-1094.7
	l-12.2-12l-17-0.8l-3.7-9l24.4,1.5l17.6,16.9L3314.7-1094.7z"/>
<radialGradient id="SVGID_00000181075927857537567690000010421899069404218531_" cx="3314.6091" cy="1249.7567" r="317.3708" gradientTransform="matrix(0.5931 -0.8051 -0.8051 -0.5931 2210.386 2403.8013)" gradientUnits="userSpaceOnUse">
	<stop  offset="0" style="stop-color:#99CC00"/>
	<stop  offset="1" style="stop-color:#99CC00"/>
</radialGradient>
<path style="fill:url(#SVGID_00000181075927857537567690000010421899069404218531_);" d="M3210.5-1156.3l0.7,9.8l-52.2-14.4
	l-105.7,75.5l49.5,170.7l177.6-3.5l40.9-123.3l-29.6-46.1l9.6-2.2l30.3,46.1c2,3,2.6,6.8,1.6,10.3l-37.4,133.7
	c-1.4,5.1-6,8.8-11.3,9.1l-198.3,12c-6,0.4-11.5-3.6-12.9-9.5l-47.5-193.1c-1.3-5.2,0.9-10.6,5.4-13.5l116.5-75.3
	c3-2,6.8-2.5,10.3-1.5L3210.5-1156.3z M3272.1-1117.9l-9.2-14.3l-16.4-4.5l-1.6-9.6l23.5,6.8l13.4,20.4L3272.1-1117.9z"/>
<radialGradient id="SVGID_00000018217346650802901860000016505258998837160123_" cx="3314.6091" cy="1249.7567" r="317.3708" gradientTransform="matrix(0.7563 -0.6542 -0.6542 -0.7563 1422.0237 2050.1738)" gradientUnits="userSpaceOnUse">
	<stop  offset="0" style="stop-color:#99CC00"/>
	<stop  offset="1" style="stop-color:#99CC00"/>
</radialGradient>
<path style="fill:url(#SVGID_00000018217346650802901860000016505258998837160123_);" d="M3184.1-1201l-1.5,9.7l-47.7-25.6
	l-119.8,50.3l10.5,177.4l173.9,35.9l67.1-111.2l-18.7-51.5l9.9,0l19.4,51.6c1.3,3.4,1,7.2-0.7,10.4l-66,122.1
	c-2.5,4.7-7.8,7.3-13,6.4l-196.1-32.1c-6-1-10.4-6.1-10.5-12.1l-3.6-198.8c-0.1-5.3,3.2-10.2,8.2-12l130.3-47.7
	c3.4-1.2,7.2-1,10.4,0.8L3184.1-1201z M3235.7-1149.8l-5.8-16l-15-8.1l0.5-9.7l21.4,11.9l8.6,22.8L3235.7-1149.8z"/>
<radialGradient id="SVGID_00000158720449595917232290000014849548394194521755_" cx="3314.6091" cy="1249.7567" r="317.3708" gradientTransform="matrix(0.8822 -0.4709 -0.4709 -0.8822 731.2874 1531.0876)" gradientUnits="userSpaceOnUse">
	<stop  offset="0" style="stop-color:#99CC00"/>
	<stop  offset="1" style="stop-color:#99CC00"/>
</radialGradient>
<path style="fill:url(#SVGID_00000158720449595917232290000014849548394194521755_);" d="M3168.2-1250.3l-3.6,9.2l-40.9-35.5
	l-127.9,22.6l-28.9,175.3l161.7,73.4l90-93.6l-6.8-54.3l9.6,2.2l7.5,54.7c0.5,3.6-0.6,7.2-3,9.9l-91.3,104.5
	c-3.5,4-9.2,5.4-14.1,3.4l-184.1-74.7c-5.6-2.3-8.8-8.2-7.6-14.1l40.4-194.7c1.1-5.2,5.4-9.2,10.7-9.9l137.6-17.8
	c3.6-0.5,7.2,0.7,9.9,3.1L3168.2-1250.3z M3207.2-1189.1l-2.1-16.9l-12.9-11.2l2.7-9.4l18.3,16.3l3.3,24.2L3207.2-1189.1z"/>
<radialGradient id="SVGID_00000116927230441227273060000018233577720019987874_" cx="3314.6091" cy="1249.7567" r="317.3708" gradientTransform="matrix(0.9644 -0.2643 -0.2643 -0.9644 172.3242 872.2043)" gradientUnits="userSpaceOnUse">
	<stop  offset="0" style="stop-color:#99CC00"/>
	<stop  offset="1" style="stop-color:#99CC00"/>
</radialGradient>
<path style="fill:url(#SVGID_00000116927230441227273060000018233577720019987874_);" d="M3163.6-1302l-5.6,8.1l-32-43.7l-129.7-6.3
	l-67,164.6l141.5,107.3l108.5-71.4l5.3-54.5l8.9,4.3l-4.7,55c-0.3,3.6-2.2,6.9-5.1,9l-112.2,81.7c-4.3,3.1-10.1,3.2-14.5,0.2
	l-163.1-113.5c-5-3.5-6.7-10-4.2-15.5l82.4-181c2.2-4.9,7.3-7.8,12.6-7.3l138.1,13.1c3.6,0.3,6.9,2.2,9,5.2L3163.6-1302z
	 M3188.1-1233.6l1.7-17l-10.1-13.8l4.7-8.5l14.2,19.9l-2.1,24.3L3188.1-1233.6z"/>
<radialGradient id="SVGID_00000031887732944122144580000010164741898938327971_" cx="857.9716" cy="327.1745" r="317.3708" gradientTransform="matrix(-0.5 -0.866 -0.866 0.5 3314.8923 -220.1556)" gradientUnits="userSpaceOnUse">
	<stop  offset="0" style="stop-color:#99CC00"/>
	<stop  offset="1" style="stop-color:#99CC00"/>
</radialGradient>
<path style="fill:url(#SVGID_00000031887732944122144580000010164741898938327971_);" d="M2481.2-896.9l9.3,3.3l-34.2,42.1
	l26.8,127.1l176.2,23.1l68-164.1l-96.6-86.8l-54.1,8.6l1.9-9.7l54.4-9.3c3.6-0.6,7.2,0.4,10,2.6l107.5,87.8c4.1,3.4,5.7,9,3.8,14
	l-68.5,186.5c-2.1,5.7-7.9,9.1-13.9,8L2476-697.5c-5.3-0.9-9.4-5.1-10.2-10.3l-22.3-137c-0.6-3.6,0.4-7.2,2.7-10L2481.2-896.9z
	 M2541.1-937.9l-16.8,2.7l-10.8,13.2l-9.5-2.3l15.7-18.8l24.1-4.1L2541.1-937.9z"/>
<radialGradient id="SVGID_00000011715037084605944690000002930807525749741702_" cx="491.3432" cy="-1883.8264" r="297.7316" gradientTransform="matrix(-0.866 0.5 -0.5 -0.866 2080.4304 -2940.686)" gradientUnits="userSpaceOnUse">
	<stop  offset="0" style="stop-color:#99CC00"/>
	<stop  offset="1" style="stop-color:#99CC00"/>
</radialGradient>
<path style="fill:url(#SVGID_00000011715037084605944690000002930807525749741702_);" d="M2579-917.1l-1.8-9.7l53.5,8.5l96.7-86.8
	l-68.1-164.1l-176.1,23.2l-26.9,127l34.5,42.5l-9.3,3.2l-35.3-42.4c-2.3-2.8-3.3-6.4-2.7-10l22.3-137c0.9-5.3,5-9.4,10.2-10.3
	l195.8-33.9c6-1,11.8,2.3,13.9,8l68.6,186.6c1.8,5,0.3,10.6-3.8,14l-107.4,87.8c-2.8,2.3-6.5,3.3-10.1,2.6L2579-917.1z
	 M2513.5-948.5l10.8,13.2l16.8,2.7l2.7,9.4l-24.1-4.2l-15.6-18.8L2513.5-948.5z"/>
<polygon class="st1" points="3666.8,-1495.5 3666.8,-1120.9 3666.8,-1096.7 3588.3,-1146.1 3588.3,-1146.5 3588.3,-1263.9 
	3556,-1266 3536.3,-1267.3 3531.7,-1267.6 3468.3,-1213.6 3448,-1266.4 3446.6,-1269.9 3443.5,-1278.2 3451.5,-1286.6 
	3472.3,-1308.3 3451.6,-1329.9 3443.5,-1338.4 3446.6,-1346.7 3448,-1350.1 3467.9,-1401.9 3531.7,-1346.3 3536.3,-1346.6 
	3556,-1347.9 3588.3,-1349.9 3588.3,-1469.9 3588.3,-1470.3 3666.8,-1519.5 "/>
<polygon class="st1" points="3124.5,-1432.9 3448.9,-1620.2 3469.8,-1632.2 3466.3,-1539.6 3466,-1539.4 3364.3,-1480.7 
	3378.6,-1451.7 3387.3,-1434 3389.4,-1429.8 3467.9,-1401.9 3432.2,-1357.9 3430,-1355 3424.3,-1348.2 3413,-1350.9 3383.9,-1358 
	3375.5,-1329.3 3372.2,-1318.1 3363.4,-1316.6 3359.8,-1316.1 3305,-1307.4 3321.3,-1390.5 3318.7,-1394.3 3307.7,-1410.8 
	3289.8,-1437.7 3185.9,-1377.7 3185.5,-1377.5 3103.7,-1420.8 "/>
<polygon class="st1" points="3449,-994.5 3124.5,-1181.8 3103.7,-1193.9 3185.6,-1237.2 3186,-1237 3287.6,-1178.3 3305.6,-1205.2 
	3316.6,-1221.6 3319.2,-1225.5 3304.1,-1307.4 3360,-1298.5 3363.6,-1298 3372.4,-1296.5 3375.7,-1285.4 3384.1,-1256.6 
	3413.2,-1263.7 3424.5,-1266.4 3430.2,-1259.6 3432.5,-1256.7 3467.4,-1213.6 3387.3,-1186.1 3385.3,-1182 3376.5,-1164.2 
	3362.1,-1135.3 3466,-1075.3 3466.4,-1075.1 3469.8,-982.5 "/>
<polygon class="st1" points="304.9,-731.7 304.9,-929.9 304.9,-942.7 346.4,-916.6 346.4,-916.4 346.4,-854.3 363.5,-853.1 
	373.9,-852.5 376.3,-852.3 409.9,-880.9 420.6,-852.9 421.3,-851.1 423,-846.7 418.8,-842.2 407.8,-830.8 418.7,-819.3 423,-814.9 
	421.3,-810.5 420.6,-808.7 410.1,-781.2 376.3,-810.7 373.9,-810.5 363.5,-809.8 346.4,-808.8 346.4,-745.3 346.4,-745 304.9,-719 
	"/>
<g>
	<g>
		<g class="st3">
			<g>
				<polygon class="st4" points="1034,-911.9 1049,-891.5 1048.9,-883.4 1033.8,-902.2 				"/>
			</g>
			<g>
				<polygon class="st12" points="1033.8,-902.2 1048.9,-883.4 1035.8,-877.5 1018.2,-895.2 				"/>
			</g>
			<g>
				<polygon class="st19" points="1018.2,-895.2 1035.8,-877.5 1030,-864.5 1011.3,-879.7 				"/>
			</g>
			<g>
				<polygon class="st13" points="1011.3,-879.7 1030,-864.5 1021.9,-864.3 1001.5,-879.5 				"/>
			</g>
		</g>
		<g class="st3">
			<g>
				<polygon class="st20" points="1232.4,-880.3 1215.2,-865 1118.3,-914.3 1116.7,-939.2 				"/>
			</g>
			<g>
				<polygon class="st20" points="1116.7,-939.2 1118.3,-914.3 1076.4,-895.6 1066.7,-916.8 				"/>
			</g>
			<g>
				<polygon class="st20" points="1209.2,-704.2 1195.8,-717.6 1215.2,-865 1232.4,-880.3 				"/>
			</g>
			<g>
				<polygon class="st19" points="996.3,-846.2 1017.5,-836.5 999,-795.1 974.2,-796.8 				"/>
			</g>
			<g>
				<polygon class="st19" points="1033,-680.9 1048.2,-698.1 1195.8,-717.6 1209.2,-704.2 				"/>
			</g>
			<g>
				<polygon class="st19" points="974.2,-796.8 999,-795.1 1048.2,-698.1 1033,-680.9 				"/>
			</g>
		</g>
	</g>
	<polygon class="st19" points="1076.4,-895.6 1079.4,-863.6 1069.7,-872.2 1066.7,-916.8 	"/>
	<polygon class="st20" points="1017.6,-836.5 1048.8,-833 1040.3,-842.7 996.3,-846.2 	"/>
</g>
<g>
	<g>
		<g class="st3">
			<g>
				<polygon class="st4" points="1021,-924.9 1000.6,-939.9 992.4,-939.8 1011.3,-924.7 				"/>
			</g>
			<g>
				<polygon class="st12" points="1011.3,-924.7 992.4,-939.8 986.6,-926.8 1004.3,-909.1 				"/>
			</g>
			<g>
				<polygon class="st19" points="1004.3,-909.1 986.6,-926.8 973.6,-920.9 988.7,-902.2 				"/>
			</g>
			<g>
				<polygon class="st13" points="988.7,-902.2 973.6,-920.9 973.4,-912.8 988.6,-892.4 				"/>
			</g>
		</g>
		<g class="st3">
			<g>
				<polygon class="st20" points="989.4,-1123.3 974.1,-1106.1 1023.4,-1009.2 1048.3,-1007.6 				"/>
			</g>
			<g>
				<polygon class="st20" points="1048.3,-1007.6 1023.4,-1009.2 1004.7,-967.3 1025.9,-957.6 				"/>
			</g>
			<g>
				<polygon class="st20" points="813.3,-1100.1 826.7,-1086.7 974.1,-1106.1 989.4,-1123.3 				"/>
			</g>
			<g>
				<polygon class="st19" points="955.3,-887.3 945.6,-908.4 904.2,-889.9 905.8,-865.2 				"/>
			</g>
			<g>
				<polygon class="st19" points="790,-923.9 807.2,-939.2 826.7,-1086.7 813.3,-1100.1 				"/>
			</g>
			<g>
				<polygon class="st19" points="905.8,-865.2 904.2,-889.9 807.2,-939.2 790,-923.9 				"/>
			</g>
		</g>
	</g>
	<polygon class="st19" points="1004.7,-967.3 972.7,-970.3 981.2,-960.6 1025.9,-957.6 	"/>
	<polygon class="st20" points="945.6,-908.5 942.1,-939.7 951.8,-931.2 955.3,-887.3 	"/>
</g>
<g>
	<g>
		<g class="st3">
			<g>
				<polygon class="st4" points="1001.5,-924.9 1021.9,-939.9 1030,-939.8 1011.2,-924.7 				"/>
			</g>
			<g>
				<polygon class="st12" points="1011.2,-924.7 1030,-939.8 1035.8,-926.8 1018.2,-909.1 				"/>
			</g>
			<g>
				<polygon class="st19" points="1018.2,-909.1 1035.8,-926.8 1048.9,-920.9 1033.7,-902.2 				"/>
			</g>
			<g>
				<polygon class="st13" points="1033.7,-902.2 1048.9,-920.9 1049,-912.8 1033.9,-892.4 				"/>
			</g>
		</g>
		<g class="st3">
			<g>
				<polygon class="st20" points="1033,-1123.3 1048.3,-1106.1 999,-1009.2 974.2,-1007.6 				"/>
			</g>
			<g>
				<polygon class="st20" points="974.2,-1007.6 999,-1009.2 1017.7,-967.3 996.5,-957.6 				"/>
			</g>
			<g>
				<polygon class="st20" points="1209.1,-1100.1 1195.8,-1086.7 1048.3,-1106.1 1033,-1123.3 				"/>
			</g>
			<g>
				<polygon class="st19" points="1067.1,-887.3 1076.9,-908.4 1118.3,-889.9 1116.6,-865.2 				"/>
			</g>
			<g>
				<polygon class="st19" points="1232.4,-923.9 1215.3,-939.2 1195.8,-1086.7 1209.1,-1100.1 				"/>
			</g>
			<g>
				<polygon class="st19" points="1116.6,-865.2 1118.3,-889.9 1215.3,-939.2 1232.4,-923.9 				"/>
			</g>
		</g>
	</g>
	<polygon class="st19" points="1017.7,-967.3 1049.7,-970.3 1041.2,-960.6 996.5,-957.6 	"/>
	<polygon class="st20" points="1076.9,-908.5 1080.3,-939.7 1070.6,-931.2 1067.1,-887.3 	"/>
</g>
<g>
	<g>
		<g>
			<g class="st3">
				<g>
					<polygon class="st4" points="988.5,-911.9 973.4,-891.5 973.6,-883.4 988.7,-902.2 					"/>
				</g>
				<g>
					<polygon class="st12" points="988.7,-902.2 973.6,-883.4 986.6,-877.5 1004.2,-895.2 					"/>
				</g>
				<g>
					<polygon class="st19" points="1004.2,-895.2 986.6,-877.5 992.4,-864.5 1011.2,-879.7 					"/>
				</g>
				<g>
					<polygon class="st13" points="1011.2,-879.7 992.4,-864.5 1000.6,-864.3 1020.9,-879.5 					"/>
				</g>
			</g>
			<g class="st3">
				<g>
					<polygon class="st20" points="790,-880.3 807.3,-865 904.2,-914.3 905.8,-939.2 					"/>
				</g>
				<g>
					<polygon class="st20" points="905.8,-939.2 904.2,-914.3 946,-895.6 955.8,-916.8 					"/>
				</g>
				<g>
					<polygon class="st20" points="813.2,-704.2 826.7,-717.6 807.3,-865 790,-880.3 					"/>
				</g>
				<g>
					<polygon class="st19" points="1026.1,-846.2 1004.9,-836.5 1023.4,-795.1 1048.2,-796.8 					"/>
				</g>
				<g>
					<polygon class="st19" points="989.4,-680.9 974.2,-698.1 826.7,-717.6 813.2,-704.2 					"/>
				</g>
				<g>
					<polygon class="st19" points="1048.2,-796.8 1023.4,-795.1 974.2,-698.1 989.4,-680.9 					"/>
				</g>
			</g>
		</g>
		<g>
			
				<radialGradient id="SVGID_00000037673749640401640980000007173342347272108468_" cx="1000.7621" cy="-902.1382" r="627.2894" gradientTransform="matrix(-1.554312e-15 -1 1 -5.107026e-15 1913.3596 109.0833)" gradientUnits="userSpaceOnUse">
				<stop  offset="0" style="stop-color:#99CC00"/>
				<stop  offset="1" style="stop-color:#99CC00"/>
			</radialGradient>
			<path style="fill:url(#SVGID_00000037673749640401640980000007173342347272108468_);" d="M1003.1-1221l-152.6,127.3
				c-4.1,3.4-5.6,9.1-3.7,14.1l8,21.2l-21.2-8c-5-1.9-10.6-0.4-14.1,3.7L692.4-910.2c-3.9,4.6-3.9,11.4,0,16l127.3,152.7
				c3.4,4.1,9.1,5.6,14.1,3.7l21.2-8l-8,21.2c-1.9,5-0.4,10.6,3.7,14.1l152.6,127.3c4.6,3.9,11.4,3.9,16,0l152.7-127.3
				c4.1-3.4,5.6-9.1,3.7-14.1l-8-21.2l21.2,8c5,1.9,10.6,0.4,14.1-3.7l127.3-152.7c3.9-4.6,3.9-11.4,0-16l-127.3-152.6
				c-3.4-4.1-9.1-5.6-14.1-3.7l-21.2,8l8-21.2c1.9-5,0.4-10.6-3.7-14.1L1019.2-1221C1014.5-1224.9,1007.8-1224.9,1003.1-1221z
				 M1152.2-1074l-7.9,24.3l-85.3,32.3c-3.4,1.3-6.1,4-7.3,7.4l-19.1,51.8l7.5,6.5l19.6-51.2l77.7-25.3l-25.4,77.7l-50.6,19.3
				l6.4,7.5l51.4-18.9c3.4-1.3,6.1-3.9,7.4-7.3l32.3-85.3l24.3-7.9l108.1,140.9l-108.1,141l-24.3-7.9l-32.3-85.3
				c-1.3-3.4-4-6.1-7.4-7.3l-51.4-18.9l-6.4,7.5l50.6,19.3l25.4,77.7l-77.7-25.4l-19.3-50.6l-7.5,6.4l18.9,51.4
				c1.3,3.4,3.9,6.1,7.3,7.4l85.3,32.3l7.9,24.3l-141,108.1L870.3-730.3l7.9-24.3l85.3-32.3c3.4-1.3,6.1-4,7.3-7.4l18.9-51.4
				l-7.5-6.4l-19.3,50.6l-77.7,25.4l25.3-77.7l51.2-19.6l-6.5-7.5l-51.8,19.1c-3.4,1.3-6.1,3.9-7.4,7.3l-32.3,85.3l-24.3,7.9
				l-108.1-141l108.1-140.9l24.3,7.9l32.3,85.3c1.3,3.4,4,6.1,7.4,7.3l51.8,19.1l6.5-7.5l-51.2-19.6l-25.3-77.7l77.7,25.3l19.6,51.2
				l7.5-6.5l-19.1-51.8c-1.3-3.4-3.9-6.1-7.3-7.4l-85.3-32.3l-7.9-24.3l140.9-108.1L1152.2-1074z"/>
			
				<radialGradient id="SVGID_00000130640384777754489410000012564513473270177701_" cx="1010.5179" cy="-902.1803" r="44.7149" gradientTransform="matrix(0.7071 -0.7071 0.7071 0.7071 934.0879 450.8113)" gradientUnits="userSpaceOnUse">
				<stop  offset="0" style="stop-color:#99CC00"/>
				<stop  offset="1" style="stop-color:#99CC00"/>
			</radialGradient>
			<path style="fill:url(#SVGID_00000130640384777754489410000012564513473270177701_);" d="M1016-914l5-10.9l-9.7,0.2l0,0.1l0-0.1
				l-9.7-0.2l5,10.9l-2.2,4.9l-5,2.2l-10.8-5l0.2,9.7l0.1,0l-0.2,9.7l10.8-5l4.9,2.2l2.2,5l-5,10.7l9.7-0.2l9.7,0.2l-5-10.7l2.2-5
				l4.9-2.2l10.8,5l-0.2-9.7l0.1,0l0.2-9.7l-10.8,5l-5-2.2L1016-914z M1011.8-901.7l-0.6,1.2l-0.6-1.2l-1-0.5l1.2-0.5l0.4-1l0.4,1
				l1.2,0.5L1011.8-901.7z"/>
		</g>
		<polygon class="st19" points="946,-895.6 943,-863.6 952.7,-872.2 955.8,-916.8 		"/>
		<polygon class="st20" points="1004.9,-836.5 973.6,-833 982.2,-842.7 1026.1,-846.2 		"/>
	</g>
</g>
<path class="st1" d="M2728.1,378.4l40.5-31.1l9.4-3l1.9-0.6l3.7,13.6l8.6-9.4l34.5-37.6l8.8-4.6l1.7-0.9l6,12.7l6.9-10.8l27.4-43
	l7.8-6l1.5-1.2l8.1,11.5l4.9-11.8l19.5-47.2l6.7-7.3l1.3-1.4l10,9.9l2.8-12.5l11.1-49.8l5.3-8.3l1-1.6l11.6,8l0.6-12.7l2.2-51
	l3.8-9.1l0.7-1.8l12.8,5.9l-1.7-12.6L2981,14l2.1-9.6l0.4-1.9l13.6,3.6l-3.8-12.2L2978-54.8l0.4-9.9l0.1-2l14,1.1l-5.9-11.3
	l-23.6-45.3l-1.3-9.8l-0.3-1.9l14-1.3l-7.8-10.1l-31.1-40.5l-3-9.4l-0.6-1.9l13.6-3.7l-9.4-8.6l-37.6-34.5l-4.6-8.8l-0.9-1.7l12.7-6
	l-10.8-6.9l-43-27.4l-6-7.8l-1.2-1.5l11.5-8.1l-11.8-4.9l-47.2-19.5l-7.3-6.7l-1.4-1.3l9.9-10l-12.5-2.8l-49.8-11.1l-8.3-5.3l-1.6-1
	l8-11.6l-12.7-0.6l-51-2.2l-9.1-3.8l-1.8-0.7l5.9-12.8l-12.6,1.7l-50.6,6.7l-9.6-2.1l-1.9-0.4l3.6-13.6l-12.2,3.8l-48.7,15.3
	l-9.9-0.4l-2-0.1l1.1-14l-11.3,5.9l-45.3,23.6l-9.8,1.3l-1.9,0.3l-1.3-14l-10.1,7.8l-40.5,31.1l-9.4,3l-1.9,0.6l-3.7-13.6l-8.6,9.4
	l-34.5,37.6l-8.8,4.6l-1.7,0.9l-6-12.7l-6.9,10.8l-27.4,43l-7.8,6l-1.5,1.2l-8.1-11.5l-4.9,11.8l-19.5,47.2l-6.7,7.3l-1.3,1.4
	l-10-9.9l-2.8,12.5l-11.1,49.8l-5.3,8.3l-1,1.6l-11.6-8l-0.6,12.7l-2.2,51l-3.8,9.1l-0.7,1.8l-12.8-5.9l1.7,12.6l6.7,50.6l-2.1,9.6
	l-0.4,1.9l-13.6-3.6l3.8,12.2l15.3,48.7l-0.4,9.9l-0.1,2l-14-1.1l5.9,11.3l23.6,45.3l1.3,9.8l0.3,1.9l-14,1.3l7.8,10.1l31.1,40.5
	l3,9.4l0.6,1.9l-13.6,3.7l9.4,8.6l37.6,34.5l4.6,8.8l0.9,1.7l-12.7,6l10.8,6.9l43,27.4l6,7.8l1.2,1.5l-11.5,8.1l11.8,4.9l47.2,19.5
	l7.3,6.7l1.4,1.3l-9.9,10l12.5,2.8l49.8,11.1l8.3,5.3l1.6,1l-8,11.6l12.7,0.6l51,2.2l9.1,3.8l1.8,0.7l-5.9,12.8l12.6-1.7l50.6-6.7
	l9.6,2.1l1.9,0.4l-3.6,13.6l12.2-3.8l48.7-15.3l9.9,0.4l2,0.1l-1.1,14l11.3-5.9l45.3-23.6l9.8-1.3l1.9-0.3l1.3,14L2728.1,378.4z
	 M2311.1,209.5l12.9-11.2l7.9-6.9l1.8-1.6l7.1,0.4l-0.4,12.3l-1.8,1.7l-7.5,7.2l-10.7,10.2L2311.1,209.5z M2278.3,158.5l14.7-8.8
	l8.9-5.4l2.1-1.3l6.9,1.7l-2.6,12.1l-2,1.4l-8.7,5.8l-12.3,8.2L2278.3,158.5z M2254.9,102.6l16-6.1l9.7-3.8l2.3-0.9l6.5,2.9
	l-4.6,11.4l-2.3,1l-9.6,4.2l-13.5,5.9L2254.9,102.6z M2861.1-216.1l-12.9,11.2l-7.9,6.9l-1.8,1.6l-7.1-0.4l0.4-12.3l1.8-1.7l7.5-7.2
	l10.7-10.2L2861.1-216.1z M2893.9-165.1l-14.7,8.8l-8.9,5.4l-2.1,1.3l-6.9-1.7l2.6-12.1l2-1.4l8.7-5.8l12.3-8.2L2893.9-165.1z
	 M2917.3-109.2l-16,6.1l-9.7,3.8l-2.3,0.9l-6.5-2.9l4.6-11.4l2.3-1l9.6-4.2l13.5-5.9L2917.3-109.2z M2699.1,258.9l-4.5-0.3l-9.8-2.9
	l-5.9-1.7l-3.1,3.4l-6-0.4l-1.9-0.1l-4.7-0.3l-3,5.4l-7.6,13.9l-1.2-0.6l0.6-0.8l-4.4-1.1l-9.1-4.5l-5.5-2.7l-3.6,2.8l-5.9-1.4
	l-1.9-0.5l-4.6-1.1l-3.9,4.8l-9.9,12.3l-1.1-0.8l0.7-0.7l-4.2-1.8l-8.2-6l-5-3.6l-4,2.1l-5.5-2.4l-1.8-0.8l-4.3-1.8l-4.7,4.1
	l-11.9,10.4l-1-1l0.8-0.6l-3.8-2.5l-7-7.4l-4.3-4.4l-4.3,1.4l-5-3.3l-1.6-1.1l-3.9-2.6l-5.3,3.2l-13.5,8.2l-0.8-1.2l0.9-0.5
	l-3.3-3.1l-5.6-8.5l-3.5-5.1l-4.5,0.6l-4.4-4.2l-1.4-1.4l-3.4-3.2l-5.8,2.2l-14.8,5.7l-0.6-1.3l1-0.3l-2.7-3.6l-4.1-9.3l-2.5-5.6
	l-4.6-0.2l-3.6-4.9l-1.1-1.6l-2.8-3.8l-6.1,1.2l-15.5,3.1l-0.3-1.4l1-0.1l-2-4.1l-2.4-9.9l-1.5-6l-4.5-0.9l-2.7-5.4l-0.9-1.8
	l-2.1-4.2l-6.2,0.1l-15.8,0.3l-0.1-1.4l1,0.1l-1.3-4.4l-0.7-10.2l-0.4-6.1l-4.2-1.7l-1.7-5.8l-0.5-1.9l-1.4-4.5l-6.1-1l-15.6-2.4
	l0.2-1.4l1,0.2l-0.5-4.5l1.1-10.1l0.6-6.1l-3.9-2.4l-0.7-6l-0.2-1.9l-0.6-4.7l-5.9-2l-15-5.1l0.4-1.3l0.9,0.4l0.3-4.5l2.9-9.8
	l1.7-5.9l-3.4-3.1l0.4-6l0.1-1.9l0.3-4.7l-5.4-3l-13.9-7.6l0.6-1.2l0.8,0.6l1.1-4.4l4.5-9.1l2.7-5.5l-2.8-3.6l1.4-5.9l0.5-1.9
	l1.1-4.6l-4.8-3.9l-12.3-9.9l0.8-1.1l0.7,0.7l1.8-4.2l6-8.2l3.6-5l-2.1-4l2.4-5.5l0.8-1.8l1.8-4.3l-4.1-4.7l-10.4-11.9l1-1l0.6,0.8
	l2.5-3.8l7.4-7l4.4-4.3l-1.4-4.3l3.3-5l1.1-1.6l2.6-3.9l-3.2-5.3l-8.2-13.5l1.2-0.8l0.5,0.9l3.1-3.3l8.5-5.6l5.1-3.5l-0.6-4.5
	l4.2-4.4l1.4-1.4l3.2-3.4l-2.2-5.8l-5.7-14.8l1.3-0.6l0.3,1l3.6-2.7l9.3-4.1l5.6-2.5l0.2-4.6l4.9-3.6l1.6-1.1l3.8-2.8l-1.2-6.1
	l-3.1-15.5l1.4-0.3l0.1,1l4.1-2l9.9-2.4l6-1.5l0.9-4.5l5.4-2.7l1.8-0.9l4.2-2.1l-0.1-6.2l-0.3-15.8l1.4-0.1l-0.1,1l4.4-1.3l10.2-0.7
	l6.1-0.4l1.7-4.2l5.8-1.7l1.9-0.5l4.5-1.4l1-6.1l2.4-15.6l1.4,0.2l-0.2,1l4.5-0.5l10.1,1.1l6.1,0.6l2.4-3.9l6-0.7l1.9-0.2l4.7-0.6
	l2-5.9l5.1-15l1.3,0.4l-0.4,0.9l4.5,0.3l9.8,2.9l5.9,1.7l3.1-3.4l6,0.4l1.9,0.1l4.7,0.3l3-5.4l7.6-13.9l1.2,0.6l-0.6,0.8l4.4,1.1
	l9.1,4.5l5.5,2.7l3.6-2.8l5.9,1.4l1.9,0.5l4.6,1.1l3.9-4.8l9.9-12.3l1.1,0.8l-0.7,0.7l4.2,1.8l8.2,6l5,3.6l4-2.1l5.5,2.4l1.8,0.8
	l4.3,1.8l4.7-4.1l11.9-10.4l1,1l-0.8,0.6l3.8,2.5l7,7.4l4.3,4.4l4.3-1.4l5,3.3l1.6,1.1l3.9,2.6l5.3-3.2l13.5-8.2l0.8,1.2l-0.9,0.5
	l3.3,3.1l5.6,8.5l3.5,5.1l4.5-0.6l4.4,4.2l1.4,1.4l3.4,3.2l5.8-2.2l14.8-5.7l0.6,1.3l-1,0.3l2.7,3.6l4.1,9.3l2.5,5.6l4.6,0.2
	l3.6,4.9l1.1,1.6l2.8,3.8l6.1-1.2l15.5-3.1l0.3,1.4l-1,0.1l2,4.1l2.4,9.9l1.5,6l4.5,0.9l2.7,5.4l0.9,1.8l2.1,4.2l6.2-0.1l15.8-0.3
	l0.1,1.4l-1-0.1l1.3,4.4l0.7,10.2l0.4,6.1l4.2,1.7l1.7,5.8l0.5,1.9l1.4,4.5l6.1,1l15.6,2.4l-0.2,1.4l-1-0.2l0.5,4.5l-1.1,10.1
	l-0.6,6.1l3.9,2.4l0.7,6l0.2,1.9l0.6,4.7l5.9,2l15,5.1l-0.4,1.3l-0.9-0.4l-0.3,4.5l-2.9,9.8l-1.7,5.9l3.4,3.1l-0.4,6l-0.1,1.9
	l-0.3,4.7l5.4,3l13.9,7.6l-0.6,1.2l-0.8-0.6l-1.1,4.4l-4.5,9.1l-2.7,5.5l2.8,3.6l-1.4,5.9l-0.5,1.9l-1.1,4.6l4.8,3.9l12.3,9.9
	l-0.8,1.1l-0.7-0.7l-1.8,4.2l-6,8.2l-3.6,5l2.1,4l-2.4,5.5l-0.8,1.8l-1.8,4.3l4.1,4.7l10.4,11.9l-1,1l-0.6-0.8l-2.5,3.8l-7.4,7
	l-4.4,4.3l1.4,4.3l-3.3,5l-1.1,1.6l-2.6,3.9l3.2,5.3l8.2,13.5l-1.2,0.8l-0.5-0.9l-3.1,3.3l-8.5,5.6l-5.1,3.5l0.6,4.5l-4.2,4.4
	l-1.4,1.4l-3.2,3.4l2.2,5.8l5.7,14.8l-1.3,0.6l-0.3-1l-3.6,2.7l-9.3,4.1l-5.6,2.5l-0.2,4.6l-4.9,3.6l-1.6,1.1l-3.8,2.8l1.2,6.1
	l3.1,15.5l-1.4,0.3l-0.1-1l-4.1,2l-9.9,2.4l-6,1.5l-0.9,4.5l-5.4,2.7l-1.8,0.9l-4.2,2.1l0.1,6.2l0.3,15.8l-1.4,0.1l0.1-1l-4.4,1.3
	l-10.2,0.7l-6.1,0.4l-1.7,4.2l-5.8,1.7l-1.9,0.5l-4.5,1.4l-1,6.1l-2.4,15.6l-1.4-0.2l0.2-1l-4.5,0.5l-10.1-1.1l-6.1-0.6l-2.4,3.9
	l-6,0.7l-1.9,0.2l-4.7,0.6l-2,5.9l-5.1,15l-1.3-0.4L2699.1,258.9z M2265.6-3.5l-2.5,0.2l-10.4,0.7L2238-1.8l0.7-15.3l17.1-0.3
	l10.5-0.2l2.5-0.1l5.2,4.9L2265.6-3.5z M2270.5-59.2l-2.4-0.3l-10.4-1.1l-14.6-1.6l3.3-14.9l16.9,2.7l10.3,1.6l2.4,0.4l4.2,5.8
	L2270.5-59.2z M2285-113.2l-2.4-0.7l-10-2.9l-14.1-4.1l5.9-14.1l16.2,5.6l9.9,3.4l2.3,0.8l3.2,6.4L2285-113.2z M2297-169.5
	l-13.2-6.5l8.2-12.9l15,8.3l9.2,5l2.2,1.2l2,6.9l-11.7,3.8l-2.2-1.1L2297-169.5z M2318.4-225.9l10.3-11.3l13.3,10.8l8.1,6.6l1.9,1.5
	l0.8,7.1l-12.2,1.7l-2-1.5l-8.4-6.2L2318.4-225.9z M2373.3-278.3l11.2,12.9l6.9,7.9l1.6,1.8l-0.5,7.1l-12.3-0.4l-1.7-1.8l-7.2-7.5
	l-10.2-10.7L2373.3-278.3z M2410.7-304l13.6-7.1l8.8,14.7l5.4,8.9l1.3,2.1l-1.7,6.9l-12.1-2.6l-1.4-2l-5.8-8.7L2410.7-304z
	 M2906.7-3l2.5-0.2l10.4-0.7l14.7-0.9l-0.7,15.3l-17.1,0.3L2906,11l-2.5,0.1l-5.2-4.9L2906.7-3z M2901.8,52.6l2.4,0.3l10.4,1.1
	l14.6,1.6l-3.3,14.9l-16.9-2.7l-10.3-1.6l-2.4-0.4l-4.2-5.8L2901.8,52.6z M2887.3,106.6l2.4,0.7l10,2.9l14.1,4.1l-5.9,14.1
	l-16.2-5.6l-9.9-3.4l-2.3-0.8l-3.2-6.4L2887.3,106.6z M2875.2,162.9l13.2,6.5l-8.2,12.9l-15-8.3l-9.2-5l-2.2-1.2l-2-6.9l11.7-3.8
	l2.2,1.1L2875.2,162.9z M2853.8,219.3l-10.3,11.3l-13.3-10.8l-8.1-6.6l-1.9-1.5l-0.8-7.1l12.2-1.7l2,1.5l8.4,6.2L2853.8,219.3z
	 M2798.9,271.7l-11.2-12.9l-6.9-7.9l-1.6-1.8l0.4-7.1l12.3,0.4l1.7,1.8l7.2,7.5l10.2,10.7L2798.9,271.7z M2746.2,274.5l1.4,2
	l5.8,8.7l8.2,12.3l-13.6,7.1l-8.8-14.7l-5.4-8.9l-1.3-2.1l1.7-6.9L2746.2,274.5z M2930.7-50.1l-16.8,3.3l-10.3,2l-2.4,0.5l-6-4
	l6.6-10.5l2.4-0.6l10.2-2.5l14.3-3.5L2930.7-50.1z M2809.3-247.3l-6.6,8.1l-1.5,1.9l-7.1,0.8l-1.7-12.2l1.5-2l6.2-8.4l8.7-11.9
	l11.3,10.3L2809.3-247.3z M2763.5-282.4l-5,9.2l-1.2,2.2l-6.9,2l-3.8-11.7l1.1-2.2l4.6-9.4l6.5-13.2l12.9,8.2L2763.5-282.4z
	 M2712.3-308.9l-3.4,9.9l-0.8,2.3l-6.4,3.2l-5.8-10.9l0.7-2.4l2.9-10l4.1-14.1l14.1,5.9L2712.3-308.9z M2660-343.1l-2.7,16.9
	l-1.6,10.3l-0.4,2.4l-5.8,4.2l-7.6-9.7l0.3-2.4l1.1-10.4l1.6-14.6L2660-343.1z M2599.9-350.8l0.3,17.1l0.2,10.5l0.1,2.5l-4.9,5.2
	l-9.2-8.3l-0.2-2.5l-0.7-10.4l-0.9-14.7L2599.9-350.8z M2539.3-347.9l3.3,16.8l2,10.3l0.5,2.4l-4,6l-10.5-6.6l-0.6-2.4l-2.5-10.2
	l-3.5-14.3L2539.3-347.9z M2480.2-334.5l6.1,16l3.8,9.7l0.9,2.3l-2.9,6.5l-11.4-4.6l-1-2.3l-4.2-9.6l-5.9-13.5L2480.2-334.5z
	 M2241.5,43.5l16.8-3.3l10.3-2l2.4-0.5l6,4l-6.6,10.5l-2.4,0.6l-10.2,2.5l-14.3,3.5L2241.5,43.5z M2363,240.8l6.6-8.1l1.5-1.9
	l7.1-0.8l1.7,12.2l-1.5,2l-6.2,8.4l-8.7,11.9l-11.3-10.3L2363,240.8z M2408.7,275.8l5-9.2l1.2-2.2l6.9-2l3.8,11.7l-1.1,2.2l-4.6,9.4
	l-6.5,13.2l-12.9-8.2L2408.7,275.8z M2459.9,302.4l3.4-9.9l0.8-2.3l6.4-3.2l5.8,10.9l-0.7,2.4l-2.9,10l-4.1,14.1l-14.1-5.9
	L2459.9,302.4z M2512.2,336.5l2.7-16.9l1.6-10.3l0.4-2.4l5.8-4.2l7.6,9.7l-0.3,2.4l-1.1,10.4l-1.6,14.6L2512.2,336.5z M2572.3,344.2
	l-0.3-17.1l-0.2-10.5l-0.1-2.5l4.9-5.2l9.2,8.3l0.2,2.5l0.7,10.4l0.9,14.7L2572.3,344.2z M2632.9,341.3l-3.3-16.8l-2-10.3l-0.5-2.4
	l4-6l10.5,6.6l0.6,2.4l2.5,10.2l3.5,14.3L2632.9,341.3z M2692,327.9l-6.1-16l-3.8-9.7l-0.9-2.3l2.9-6.5l11.4,4.6l1,2.3l4.2,9.6
	l5.9,13.5L2692,327.9z"/>
<radialGradient id="SVGID_00000137123080143742434590000008852967065449441664_" cx="2575.2224" cy="-3.2849" r="649.644" gradientUnits="userSpaceOnUse">
	<stop  offset="0" style="stop-color:#99CC00"/>
	<stop  offset="1" style="stop-color:#99CC00"/>
</radialGradient>
<path style="fill:url(#SVGID_00000137123080143742434590000008852967065449441664_);" d="M2917.3-8.7L2884-48.7l18.9-52.6
	c2.8-7.7-0.4-16.3-7.4-20.4l-45-26.1l-0.2-55.9c0-8.2-5.9-15.2-14-16.7l-51.2-9.2l-19.3-52.4c-2.8-7.7-10.8-12.3-18.8-10.9
	l-51.3,8.9l-36.1-42.7c-5.3-6.3-14.3-7.9-21.4-3.8l-45.1,25.9l-48.5-27.8c-7.1-4.1-16.1-2.5-21.4,3.8l-33.6,39.8l-55-9.5
	c-8.1-1.4-16,3.2-18.8,10.9l-17.9,48.8l-55,9.9c-8.1,1.5-14,8.5-14,16.7l-0.1,52l-48.3,28.1c-7.1,4.1-10.2,12.7-7.4,20.4l17.7,48.9
	l-35.8,42.9c-5.2,6.3-5.2,15.5,0,21.7l33.3,39.9l-18.9,52.6c-2.8,7.7,0.4,16.3,7.4,20.4l45,26.1l0.2,55.9c0,8.2,5.9,15.2,14,16.7
	l51.2,9.2l19.3,52.4c2.8,7.7,10.8,12.3,18.8,10.9l51.3-8.9l36.1,42.7c5.3,6.3,14.3,7.9,21.4,3.8l45.1-25.9l48.5,27.8
	c7.1,4.1,16.1,2.5,21.4-3.8l33.6-39.8l55,9.5c8.1,1.4,16-3.2,18.8-10.9l17.9-48.8l55-9.9c8.1-1.5,14-8.5,14-16.7l0.1-52l48.3-28.1
	c7.1-4.1,10.2-12.7,7.4-20.4l-17.7-48.9l35.8-42.9C2922.5,6.7,2922.5-2.5,2917.3-8.7z M2804.8-23.3l-10.5-8.6l7.2-12.1l3.8,11.9
	L2804.8-23.3z M2801.8,44.6l-3.4,8.1l-7-11.7l10.9-8.9L2801.8,44.6z M2387.5,90.3l12.8,4.5l-2.6,13.8l-7.6-9.9L2387.5,90.3z
	 M2367.5,16.7l10.5,8.6l-7.2,12.1l-3.8-11.9L2367.5,16.7z M2370.4-51.1l3.4-8.1l7,11.7l-10.9,8.9L2370.4-51.1z M2784.7-96.9
	l-12.8-4.5l2.6-13.8l7.6,9.9L2784.7-96.9z M2717.5,31.4l-5.6,26.6l-5.3,1l-6.3-17.7L2717.5,31.4L2717.5,31.4z M2547.6,131.2
	l-1.9-5.1l16.3-9.3l12.9,15.3l-0.1,0.1L2547.6,131.2z M2454.8-38l5.6-26.6l5.3-1l6.3,17.7L2454.8-38L2454.8-38z M2624.7-137.7
	l1.9,5.1l-16.3,9.3l-12.9-15.3l0.1-0.1L2624.7-137.7z M2721.4-15.6l3.8,27l-4.7,2.8l-12-14.4L2721.4-15.6L2721.4-15.6z M2649.4,52.2
	l-1.6,2l-11,6.1l0.5,6.8l-2.4,3l-7,1.1l-1.2-0.8l-2.2,1.3l-12.4,2l-1.9,6.6l-3.3,2l-7-1.3l-0.8-1.1l-2.5,0.5l-12.4-2.4l-4,5.5
	l-3.8,0.7l-6.1-3.7l-0.4-1.3l-2.5-0.4l-10.8-6.5l-5.7,3.8l-3.8-0.6l-4.5-5.5l0.1-1.4l-2.2-1.2l-7.9-9.8l-6.7,1.7l-3.4-1.9l-2.3-6.7
	l0.6-1.3l-1.7-1.9l-4.1-11.9l-6.8-0.7l-2.5-2.9l0.1-7.1l1-1l-0.9-2.4l0.2-12.6l-6.2-3l-1.4-3.6l2.5-6.7l1.2-0.6l0-2.6l4.5-11.8
	l-4.8-4.9l-0.1-3.9l4.7-5.4l1.4-0.1l0.8-2.4l8.2-9.5l-2.8-6.3l1.3-3.6l6.2-3.5l1.3,0.3l1.6-2l11-6.1l-0.5-6.8l2.4-3l7-1.1l1.2,0.8
	l2.2-1.3l12.4-2l1.9-6.6l3.3-2l7,1.3l0.8,1.1l2.5-0.5l12.4,2.4l4-5.5l3.8-0.7l6.1,3.7l0.4,1.3l2.5,0.4l10.8,6.5l5.7-3.8l3.8,0.6
	l4.5,5.5l-0.1,1.4l2.2,1.2l7.9,9.8l6.7-1.7l3.4,1.9l2.3,6.7l-0.6,1.3l1.7,1.9l4.1,11.9l6.8,0.7l2.5,2.9l-0.1,7.1l-1,1l0.9,2.4
	l-0.2,12.6l6.2,3l1.4,3.6l-2.5,6.7l-1.2,0.6l0,2.6l-4.5,11.8l4.8,4.9l0.1,3.9l-4.7,5.4l-1.4,0.1l-0.8,2.4l-8.2,9.5l2.8,6.3L2657,49
	l-6.2,3.5L2649.4,52.2z M2485.7,30l2.4-6.9l0.8,1l4.4-1.5l0.4,1.2l0,11L2485.7,30z M2450.8,9.1l-3.8-27l4.7-2.8l12,14.4L2450.8,9.1
	L2450.8,9.1z M2498.5-43.1l-0.4,1.2l-7.1,8.4l-3.1-8.9l6.2-3.7l0,1.3L2498.5-43.1z M2480.4-6.4l4.6-5.6l0.4,1.2l4.7,0.1l0,1.3
	l-3.8,10.3L2480.4-6.4z M2480.6-24.1l-1.6-0.6l-6.8,8.2l-9-11.1l13.3-8L2480.6-24.1z M2472.1,3.9l7.8,9.4l-1.7,0l-3.6,10l-12.3-7.3
	L2472.1,3.9z M2561.2,94.6l0.9-4.6l1.3,0.2l9.5,5.6l-8.2,4.6l-4.8-5.5L2561.2,94.6z M2686.5-36.5l-2.4,6.9l-0.8-1l-4.4,1.5l-0.4-1.2
	l0-11L2686.5-36.5z M2686.8,4.2l-4.7-0.1l0-1.3l3.8-10.3l5.9,7.3l-4.6,5.6L2686.8,4.2z M2692.3-19.8l1.7,0l3.6-10l12.3,7.3
	l-9.8,12.1L2692.3-19.8z M2611-101.2l-0.9,4.6l-1.3-0.2l-9.5-5.6l8.2-4.6l4.8,5.5L2611-101.2z M2673.8,36.6l0.4-1.2l7.1-8.4l3.1,8.9
	l-6.2,3.7l0-1.3L2673.8,36.6z M2691.6,17.5l1.6,0.6l6.8-8.2l9,11.1l-13.3,8L2691.6,17.5z M2709-61.2l12.8,24l-3.4,4.2l-16.2-9.5
	L2709-61.2L2709-61.2z M2690.8-49l-10.5-6.1l1.6-0.6l0-10.7l14,2.7L2690.8-49z M2669.2-61.6l-1.1-0.6l-3.7,3l-0.8-1l-3.7-10.4
	l9.2,1.8L2669.2-61.6z M2656.9-84.2l1.3-1.1l-3.7-10l14.1-2.3l0.3,15.5L2656.9-84.2z M2644.2-86.5l-1.3-0.2l-2.4,4l-1.1-0.6l-7-8.5
	l9.3-1.5L2644.2-86.5z M2624.9-103.5l0.9-1.5l-6.9-8.1l12.5-6.9l5.6,14.5L2624.9-103.5z M2598.9-116.8l-10.6,6l0.3-1.7l-9.3-5.3
	l9.4-10.8L2598.9-116.8z M2577.1-104.4l-1.1,0.6l0.7,4.7l-1.3,0.2l-10.8-2l6.1-7.1L2577.1-104.4z M2551.4-105l-0.3-1.7l-10.5-1.8
	l5.1-13.3l13.6,7.6L2551.4-105z M2543.1-95.2l-0.8,1l2.3,4.1l-1.1,0.6l-10.9,1.9l3.3-8.8L2543.1-95.2z M2518.7-87l-0.9-1.5
	l-10.5,1.9l0.2-14.3l15.4,2.5L2518.7-87z M2514.2-75l-0.4,1.2l3.6,3.1l-0.8,1l-9.6,5.5l0.2-9.4L2514.2-75z M2494.1-58.9l-1.3-1.1
	l-9.2,5.4l-4.7-13.5l15.3-2.9L2494.1-58.9z M2463.2,54.6l-12.8-24l3.4-4.2l16.2,9.5L2463.2,54.6L2463.2,54.6z M2481.4,42.4l10.5,6.1
	l-1.6,0.6l0,10.7l-14-2.7L2481.4,42.4z M2503,55l1.1,0.6l3.7-3l0.8,1l3.7,10.4l-9.2-1.8L2503,55z M2515.4,77.7l-1.3,1.1l3.7,10
	l-14.1,2.3l-0.3-15.5L2515.4,77.7z M2528,79.9l1.3,0.2l2.4-4l1.1,0.6l7,8.5l-9.3,1.5L2528,79.9z M2547.3,97l-0.9,1.5l6.9,8.1
	l-12.5,6.9l-5.6-14.5L2547.3,97z M2573.3,110.2l10.6-6l-0.3,1.7l9.3,5.3l-9.4,10.8L2573.3,110.2z M2595.1,97.8l1.1-0.6l-0.7-4.7
	l1.3-0.2l10.8,2l-6.1,7.1L2595.1,97.8z M2620.8,98.5l0.3,1.7l10.5,1.8l-5.1,13.3l-13.6-7.6L2620.8,98.5z M2629.1,88.7l0.8-1
	l-2.3-4.1l1.1-0.6l10.9-1.9l-3.3,8.8L2629.1,88.7z M2653.5,80.5l0.9,1.5l10.5-1.9l-0.2,14.3l-15.4-2.5L2653.5,80.5z M2658,68.4
	l0.4-1.2l-3.6-3.1l0.8-1l9.6-5.5l-0.2,9.4L2658,68.4z M2678.1,52.3l1.3,1.1l9.2-5.4l4.7,13.5l-15.3,2.9L2678.1,52.3z M2700.3-76.4
	l-18.5-3.3l-0.1-20l0.1,0l20.2,18.2L2700.3-76.4z M2668.4-111l-18.5,3.2l-6.9-18.8l0.1,0l25.2,10.2L2668.4-111z M2579.9-138.7
	l-12.1,14.3l-17.3-9.9l0-0.1l25.9-8.4L2579.9-138.7z M2534-128.4l-6.5,17.6l-19.7-3.4l0-0.1l21.4-16.8L2534-128.4z M2494.3-103
	l-0.1,18.8l-19.7,3.5l0-0.1l14.4-23.1L2494.3-103z M2471.9,69.8l18.5,3.3l0.1,20l-0.1,0l-20.2-18.2L2471.9,69.8z M2503.8,104.4
	l18.5-3.2l6.9,18.8l-0.1,0l-25.2-10.2L2503.8,104.4z M2592.3,132.1l12.1-14.3l17.3,9.9l0,0.1l-25.9,8.4L2592.3,132.1z M2638.3,121.8
	l6.5-17.6l19.7,3.4l0,0.1l-21.4,16.8L2638.3,121.8z M2677.9,96.5l0.1-18.8l19.7-3.5l0,0.1l-14.4,23.1L2677.9,96.5z M2740.7-75.6
	l-2-12.4l6.7,2.7l-1.7,12.1L2740.7-75.6z M2421.2-47.2l-6.4,10.8l-3.4-6.3l9.1-8.2L2421.2-47.2z M2401.1-13.4l-10.2,17.1l-15.6-14
	l18-16.1L2401.1-13.4z M2414.2,8.6l1.9,3.2l-2.3,12.4l-5.3-4.8L2414.2,8.6z M2408.8,50.5l-3.7,19.5l-19.5-7.9l11.4-21.3L2408.8,50.5
	z M2428.6,66.7l2.9,2.4l2,12.4l-6.7-2.7L2428.6,66.7z M2751,40.7l6.4-10.8l3.4,6.3l-9.1,8.2L2751,40.7z M2771.2,6.9l10.2-17.1
	l15.6,14l-18,16.1L2771.2,6.9z M2758-15.2l-1.9-3.2l2.3-12.4l5.3,4.8L2758-15.2z M2763.5-57l3.7-19.5l19.5,7.9l-11.4,21.3L2763.5-57
	z M2748.8-109.4l-14.4-5l-3.2-19.6l21,0.7L2748.8-109.4z M2710.2-122.9l-3.5-1.2l-6.2-11l7.2,0.2L2710.2-122.9z M2687.4-158.5
	l-9.7-17.4l20-6.5l5,23.7L2687.4-158.5z M2661.8-158.1l-3.7,0l-9.6-8.2l6.8-2.2L2661.8-158.1z M2628.2-183.8l-15.1-13l16.5-12.9
	l12.8,20.5L2628.2-183.8z M2604.3-174.7l-3.5,1.3l-11.8-4.5l5.7-4.4L2604.3-174.7z M2564-187.3l-18.6-7l11.1-17.8l19,14.9
	L2564-187.3z M2544.6-170.5l-2.8,2.4l-12.6-0.2l3.8-6.1L2544.6-170.5z M2502.4-168.6l-19.9-0.3l4.4-20.5l23,7.5L2502.4-168.6z
	 M2489.9-146.2l-1.8,3.3l-11.9,4.2l1.5-7L2489.9-146.2z M2450.9-130l-18.8,6.6l-2.9-20.8l24.2-0.8L2450.9-130z M2446.8-104.7
	l-0.6,3.7l-9.8,8l-1-7.1L2446.8-104.7z M2415.7-76.1l-15.4,12.6l-9.9-18.5l22.4-9L2415.7-76.1z M2423.5,102.9l14.4,5l3.2,19.6
	l-21-0.7L2423.5,102.9z M2462,116.3l3.5,1.2l6.2,11l-7.2-0.2L2462,116.3z M2484.8,151.9l9.7,17.4l-20,6.5l-5-23.7L2484.8,151.9z
	 M2510.4,151.6l3.7,0l9.6,8.2l-6.8,2.2L2510.4,151.6z M2544,177.2l15.1,13l-16.5,12.9l-12.8-20.5L2544,177.2z M2568,168.1l3.5-1.3
	l11.8,4.5l-5.7,4.4L2568,168.1z M2608.3,180.7l18.6,7l-11.1,17.8l-19-14.9L2608.3,180.7z M2627.7,164l2.8-2.4l12.6,0.2l-3.8,6.1
	L2627.7,164z M2669.9,162l19.9,0.3l-4.4,20.5l-23-7.5L2669.9,162z M2682.4,139.7l1.8-3.3l11.9-4.2l-1.5,7L2682.4,139.7z
	 M2721.3,123.4l18.8-6.6l2.9,20.8l-24.2,0.8L2721.3,123.4z M2725.5,98.1l0.6-3.7l9.8-8l1,7.1L2725.5,98.1z M2756.5,69.5l15.4-12.6
	l9.9,18.5l-22.4,9L2756.5,69.5z M2740.7-159.2l-13.6,0.2l-2.3-13.9l10.5,6.7L2740.7-159.2z M2678.1-202.6l-12.7,4.8l-6.9-12.2
	l12.2,2.7L2678.1-202.6z M2604.4-222.1l-10.3,8.9l-10.6-9.2l12.4-1.6L2604.4-222.1z M2528.4-215.1l-6.6,11.9l-13.1-5l11.1-5.8
	L2528.4-215.1z M2459.4-182.6l-2.2,13.4l-14-0.2l8.4-9.2L2459.4-182.6z M2405.8-128.5l2.5,13.4l-13.2,4.6l4.8-11.5L2405.8-128.5z
	 M2431.5,152.6l13.6-0.2l2.3,13.9l-10.5-6.7L2431.5,152.6z M2494.1,196.1l12.7-4.8l6.9,12.2l-12.2-2.7L2494.1,196.1z M2567.9,215.5
	l10.3-8.9l10.6,9.2l-12.4,1.6L2567.9,215.5z M2643.8,208.6l6.6-11.9l13.1,5l-11.1,5.8L2643.8,208.6z M2712.8,176l2.2-13.4l14,0.2
	l-8.4,9.2L2712.8,176z M2766.5,121.9l-2.5-13.4l13.2-4.6l-4.8,11.5L2766.5,121.9z"/>
<g>
	<text transform="matrix(1 0 0 1 603.662 220.3486)" class="st68 st69">webEngineering</text>
</g>
</svg>
