<?xml version="1.0" encoding="utf-8"?>
<!-- Generator: Adobe Illustrator 26.5.0, SVG Export Plug-In . SVG Version: 6.00 Build 0)  -->
<svg version="1.1" id="Calque_1" xmlns="http://www.w3.org/2000/svg" xmlns:xlink="http://www.w3.org/1999/xlink" x="0px" y="0px"
	 viewBox="0 0 658 242" style="enable-background:new 0 0 658 242;" xml:space="preserve">
<style type="text/css">
	.st0{fill:#FFFFFF;}
	.st1{fill:url(#SVGID_1_);}
	.st2{font-family:'Gotham-Bold';}
	.st3{font-size:14px;}
</style>
<g>
	<path class="st0" d="M263.9,97.1h1.3V126l37.6-28.8h2.3l-25.8,19.7l27.9,27.6h-2.1l-27-26.6l-12.9,9.9v16.8h-1.3L263.9,97.1
		L263.9,97.1L263.9,97.1z"/>
	<path class="st0" d="M335.8,97.1h1.3v47.3h-1.3V97.1z"/>
	<path class="st0" d="M371,97.1h1.7l37.4,45.6h0.1V97.1h1.3v47.3h-1.7l-37.4-45.6h-0.1v45.6H371V97.1z"/>
	<path class="st0" d="M468,96.1c13.5,0,24.5,9.1,24.5,24.7c0,15.6-11,24.7-24.5,24.7c-13.5,0-24.5-9.1-24.5-24.7
		C443.5,105.2,454.5,96.1,468,96.1z M468,144.2c12.3,0,23.2-8.2,23.2-23.4S480.4,97.4,468,97.4c-12.3,0-23.2,8.2-23.2,23.4
		S455.7,144.2,468,144.2z"/>
	<path class="st0" d="M541.5,97.1h1.7l21.7,47.3h-1.7l-7.1-15.6h-27.6l-7.1,15.6h-1.7L541.5,97.1z M529.2,127.5h26.4l-13.2-29
		L529.2,127.5z"/>
	<path class="st0" d="M594,97.1h1.3v22h37.9v-22h1.3v47.3h-1.3v-24h-37.9v24H594V97.1z"/>
</g>
<polygon class="st0" points="144.1,184.9 144.1,58.1 144.1,50 170.6,66.7 170.6,66.8 170.6,106.5 181.6,107.2 188.2,107.7 
	189.8,107.8 211.2,89.5 218.1,107.4 218.6,108.5 219.6,111.3 216.9,114.2 209.9,121.5 216.9,128.9 219.6,131.7 218.6,134.5 
	218.1,135.7 211.4,153.2 189.8,134.4 188.2,134.5 181.6,134.9 170.6,135.6 170.6,176.2 170.6,176.4 144.1,193 "/>
<radialGradient id="SVGID_1_" cx="409.641" cy="-308.7481" r="202.9796" gradientTransform="matrix(1 0 0 -1 -286.2998 -187.248)" gradientUnits="userSpaceOnUse">
	<stop  offset="0" style="stop-color:#99C31C"/>
	<stop  offset="1" style="stop-color:#99C31C"/>
</radialGradient>
<path class="st1" d="M216.1,85.4l-4.8,4.1l-12.4-32.4l-79-25.8l-69.1,90.2l69.1,90.1l79-25.7l12.5-32.7l4.8,4.1l-12.2,33.1
	c-0.8,2.2-2.5,3.9-4.7,4.7l-83,31.5c-3.2,1.2-6.8,0.3-9-2.4l-81.4-97.6c-2.5-3-2.5-7.3,0-10.3l81.4-97.7c2.2-2.6,5.8-3.6,9-2.4
	l83,31.4c2.2,0.8,3.9,2.5,4.7,4.7L216.1,85.4z M219.6,131.7l3.9-10.2l-3.9-10.2l4.3-4.5l5.4,14.7l-5.4,14.6L219.6,131.7z"/>
<g>
	<text transform="matrix(1 0 0 1 520.3535 163.3195)" class="st0 st2 st3">webEngineering</text>
</g>
</svg>
