<?xml version="1.0" encoding="utf-8"?>
<!-- Generator: Adobe Illustrator 26.5.0, SVG Export Plug-In . SVG Version: 6.00 Build 0)  -->
<svg version="1.1" id="Calque_1" xmlns="http://www.w3.org/2000/svg" xmlns:xlink="http://www.w3.org/1999/xlink" x="0px" y="0px"
	 viewBox="0 0 658 242" style="enable-background:new 0 0 658 242;" xml:space="preserve">
<style type="text/css">
	.st0{fill:#FFFFFF;}
	.st1{fill:url(#SVGID_1_);}
</style>
<g>
	<path class="st0" d="M263.9,97.1h1.3V126l37.6-28.8h2.3l-25.8,19.7l27.9,27.6h-2.1l-27-26.6l-12.9,9.9v16.8h-1.3L263.9,97.1
		L263.9,97.1L263.9,97.1z"/>
	<path class="st0" d="M335.8,97.1h1.3v47.3h-1.3V97.1z"/>
	<path class="st0" d="M371,97.1h1.7l37.4,45.6h0.1V97.1h1.3v47.3h-1.7l-37.4-45.6h-0.1v45.6H371V97.1z"/>
	<path class="st0" d="M468,96.1c13.5,0,24.5,9.1,24.5,24.7c0,15.6-11,24.7-24.5,24.7c-13.5,0-24.5-9.1-24.5-24.7
		C443.5,105.2,454.5,96.1,468,96.1z M468,144.2c12.3,0,23.2-8.2,23.2-23.4S480.4,97.4,468,97.4c-12.3,0-23.2,8.2-23.2,23.4
		S455.7,144.2,468,144.2z"/>
	<path class="st0" d="M541.5,97.1h1.7l21.7,47.3h-1.7l-7.1-15.6h-27.6l-7.1,15.6h-1.7L541.5,97.1z M529.2,127.5h26.4l-13.2-29
		L529.2,127.5z"/>
	<path class="st0" d="M594,97.1h1.3v22h37.9v-22h1.3v47.3h-1.3v-24h-37.9v24H594V97.1z"/>
</g>
<polygon class="st0" points="144.1,184.9 144.1,58.1 144.1,50 170.6,66.7 170.6,66.8 170.6,106.5 181.6,107.2 188.2,107.7 
	189.8,107.8 211.2,89.5 218.1,107.4 218.6,108.5 219.6,111.3 216.9,114.2 209.9,121.5 216.9,128.9 219.6,131.7 218.6,134.5 
	218.1,135.7 211.4,153.2 189.8,134.4 188.2,134.5 181.6,134.9 170.6,135.6 170.6,176.2 170.6,176.4 144.1,193 "/>
<radialGradient id="SVGID_1_" cx="409.641" cy="-308.7481" r="202.9796" gradientTransform="matrix(1 0 0 -1 -286.2998 -187.248)" gradientUnits="userSpaceOnUse">
	<stop  offset="0" style="stop-color:#99C31C"/>
	<stop  offset="1" style="stop-color:#99C31C"/>
</radialGradient>
<path class="st1" d="M216.1,85.4l-4.8,4.1l-12.4-32.4l-79-25.8l-69.1,90.2l69.1,90.1l79-25.7l12.5-32.7l4.8,4.1l-12.2,33.1
	c-0.8,2.2-2.5,3.9-4.7,4.7l-83,31.5c-3.2,1.2-6.8,0.3-9-2.4l-81.4-97.6c-2.5-3-2.5-7.3,0-10.3l81.4-97.7c2.2-2.6,5.8-3.6,9-2.4
	l83,31.4c2.2,0.8,3.9,2.5,4.7,4.7L216.1,85.4z M219.6,131.7l3.9-10.2l-3.9-10.2l4.3-4.5l5.4,14.7l-5.4,14.6L219.6,131.7z"/>
<g>
	<g>
		<path class="st0" d="M520.7,155.8h2.2l1.2,4.6l1.4-4.6h1.8l1.4,4.6l1.2-4.6h2.1l-2.3,7.6h-1.9l-1.4-4.6l-1.5,4.6H523L520.7,155.8z
			"/>
		<path class="st0" d="M532.6,159.6L532.6,159.6c0-2.2,1.5-3.9,3.7-3.9c2.5,0,3.7,1.9,3.7,4.1c0,0.2,0,0.4,0,0.6h-5.2
			c0.2,1,0.9,1.5,1.8,1.5c0.7,0,1.2-0.2,1.8-0.8l1.2,1.1c-0.7,0.9-1.7,1.4-3.1,1.4C534.3,163.5,532.6,161.9,532.6,159.6z M537.9,159
			c-0.1-1-0.7-1.6-1.6-1.6c-0.9,0-1.5,0.6-1.6,1.6H537.9z"/>
		<path class="st0" d="M543.7,162.3v1h-2.1v-10.2h2.1v3.8c0.5-0.7,1.2-1.2,2.3-1.2c1.8,0,3.4,1.4,3.4,3.9v0c0,2.5-1.6,3.9-3.4,3.9
			C544.9,163.5,544.2,162.9,543.7,162.3z M547.3,159.6L547.3,159.6c0-1.3-0.8-2.1-1.8-2.1c-1,0-1.8,0.8-1.8,2.1v0
			c0,1.2,0.8,2.1,1.8,2.1C546.5,161.7,547.3,160.8,547.3,159.6z"/>
		<path class="st0" d="M551.3,153.5h7.4v1.9h-5.3v2h4.6v1.9h-4.6v2.1h5.3v1.9h-7.5V153.5z"/>
		<path class="st0" d="M560.4,155.8h2.1v1.1c0.5-0.6,1.1-1.2,2.2-1.2c1.6,0,2.5,1.1,2.5,2.8v4.9h-2.1v-4.2c0-1-0.5-1.5-1.3-1.5
			s-1.3,0.5-1.3,1.5v4.2h-2.1V155.8z"/>
		<path class="st0" d="M569.2,164.8l0.7-1.6c0.8,0.4,1.5,0.7,2.5,0.7c1.5,0,2.1-0.7,2.1-2v-0.4c-0.6,0.8-1.3,1.2-2.5,1.2
			c-1.8,0-3.3-1.3-3.3-3.5v0c0-2.2,1.6-3.5,3.3-3.5c1.2,0,1.8,0.5,2.4,1.1v-1h2.1v5.8c0,1.3-0.3,2.3-1,3c-0.7,0.7-1.8,1-3.2,1
			C571.3,165.6,570.1,165.3,569.2,164.8z M574.6,159.2L574.6,159.2c0-1.1-0.8-1.8-1.8-1.8c-1,0-1.8,0.7-1.8,1.7v0
			c0,1,0.8,1.7,1.8,1.7C573.8,160.9,574.6,160.2,574.6,159.2z"/>
		<path class="st0" d="M578.6,153.1h2.2v1.9h-2.2V153.1z M578.7,155.8h2.1v7.5h-2.1V155.8z"/>
		<path class="st0" d="M582.8,155.8h2.1v1.1c0.5-0.6,1.1-1.2,2.2-1.2c1.6,0,2.5,1.1,2.5,2.8v4.9h-2.1v-4.2c0-1-0.5-1.5-1.3-1.5
			s-1.3,0.5-1.3,1.5v4.2h-2.1V155.8z"/>
		<path class="st0" d="M591.2,159.6L591.2,159.6c0-2.2,1.5-3.9,3.7-3.9c2.5,0,3.7,1.9,3.7,4.1c0,0.2,0,0.4,0,0.6h-5.2
			c0.2,1,0.9,1.5,1.8,1.5c0.7,0,1.2-0.2,1.8-0.8l1.2,1.1c-0.7,0.9-1.7,1.4-3.1,1.4C592.8,163.5,591.2,161.9,591.2,159.6z M596.5,159
			c-0.1-1-0.7-1.6-1.6-1.6c-0.9,0-1.5,0.6-1.6,1.6H596.5z"/>
		<path class="st0" d="M599.8,159.6L599.8,159.6c0-2.2,1.5-3.9,3.7-3.9c2.5,0,3.7,1.9,3.7,4.1c0,0.2,0,0.4,0,0.6h-5.2
			c0.2,1,0.9,1.5,1.8,1.5c0.7,0,1.2-0.2,1.8-0.8l1.2,1.1c-0.7,0.9-1.7,1.4-3.1,1.4C601.4,163.5,599.8,161.9,599.8,159.6z M605.1,159
			c-0.1-1-0.7-1.6-1.6-1.6c-0.9,0-1.5,0.6-1.6,1.6H605.1z"/>
		<path class="st0" d="M608.7,155.8h2.1v1.5c0.4-1,1.1-1.7,2.4-1.7v2.2h-0.1c-1.4,0-2.3,0.9-2.3,2.6v2.8h-2.1V155.8z"/>
		<path class="st0" d="M614.6,153.1h2.2v1.9h-2.2V153.1z M614.7,155.8h2.1v7.5h-2.1V155.8z"/>
		<path class="st0" d="M618.8,155.8h2.1v1.1c0.5-0.6,1.1-1.2,2.2-1.2c1.6,0,2.5,1.1,2.5,2.8v4.9h-2.1v-4.2c0-1-0.5-1.5-1.3-1.5
			s-1.3,0.5-1.3,1.5v4.2h-2.1V155.8z"/>
		<path class="st0" d="M627.5,164.8l0.7-1.6c0.8,0.4,1.5,0.7,2.5,0.7c1.5,0,2.1-0.7,2.1-2v-0.4c-0.6,0.8-1.3,1.2-2.5,1.2
			c-1.8,0-3.3-1.3-3.3-3.5v0c0-2.2,1.6-3.5,3.3-3.5c1.2,0,1.8,0.5,2.4,1.1v-1h2.1v5.8c0,1.3-0.3,2.3-1,3c-0.7,0.7-1.8,1-3.2,1
			C629.7,165.6,628.5,165.3,627.5,164.8z M633,159.2L633,159.2c0-1.1-0.8-1.8-1.8-1.8s-1.8,0.7-1.8,1.7v0c0,1,0.8,1.7,1.8,1.7
			S633,160.2,633,159.2z"/>
	</g>
</g>
</svg>
